<svg version="1.1" xmlns="http://www.w3.org/2000/svg" viewBox="0 0 2377.206886112404 1376.5225516702558" width="2377.206886112404" height="1376.5225516702558" filter="invert(93%) hue-rotate(180deg)">
  <!-- svg-source:excalidraw -->
  
  <defs>
    <style class="style-fonts">
      @font-face {
        font-family: "Virgil";
        src: url("https://excalidraw.com/Virgil.woff2");
      }
      @font-face {
        font-family: "Cascadia";
        src: url("https://excalidraw.com/Cascadia.woff2");
      }
    </style>
    
  </defs>
  <rect x="0" y="0" width="2377.206886112404" height="1376.5225516702558" fill="#ffffff"></rect><g stroke-linecap="round" transform="translate(51.19572706274357 634.5707211665112) rotate(0 116 124.5)"><path d="M146.25 31.25 C158.49 46.03, 173.04 60, 202.75 93.75 M146.25 31.25 C168.35 55.62, 192.58 80.18, 202.75 93.75 M202.75 93.75 C233.25 123.9, 230.61 124.86, 202.75 156.25 M202.75 93.75 C229.78 124.24, 231.35 126.74, 202.75 156.25 M202.75 156.25 C191.16 170.01, 180.09 181.38, 146.25 217.75 M202.75 156.25 C191.6 169.83, 180.19 181.02, 146.25 217.75 M146.25 217.75 C118.02 247.23, 116.81 250.93, 87.75 217.75 M146.25 217.75 C117.44 247.57, 116.88 249.5, 87.75 217.75 M87.75 217.75 C70.57 200.41, 54.56 179.65, 29.25 156.25 M87.75 217.75 C74.78 203.36, 59.99 187.24, 29.25 156.25 M29.25 156.25 C1.17 125.28, 1.76 125.34, 29.25 93.75 M29.25 156.25 C-1.71 125.44, -0.57 124.01, 29.25 93.75 M29.25 93.75 C44.75 73.65, 65.48 56.23, 87.75 31.25 M29.25 93.75 C49.49 71.53, 70.28 49.76, 87.75 31.25 M87.75 31.25 C117.1 0.61, 117.5 0.63, 146.25 31.25 M87.75 31.25 C118.54 -0.48, 118.33 0.73, 146.25 31.25" stroke="#2f9e44" stroke-width="1" fill="none"></path></g><g transform="translate(135.14574689916935 734.3207211665112) rotate(0 32.04998016357422 25)"><text x="32.04998016357422" y="0" font-family="Virgil, Segoe UI Emoji" font-size="20px" fill="#2f9e44" text-anchor="middle" style="white-space: pre;" direction="ltr" dominant-baseline="text-before-edge">OPEN </text><text x="32.04998016357422" y="25" font-family="Virgil, Segoe UI Emoji" font-size="20px" fill="#2f9e44" text-anchor="middle" style="white-space: pre;" direction="ltr" dominant-baseline="text-before-edge">WEB</text></g><g stroke-linecap="round"><g transform="translate(287.69572706274334 757.5707211665112) rotate(0 89.0264900275904 -1.9113341623205997)"><path d="M-0.15 -0.09 C29.51 -0.75, 148.19 -3.37, 177.91 -4.03 M0.05 0.21 C29.77 -0.43, 148.53 -3.16, 178.21 -3.85" stroke="#2f9e44" stroke-width="1" fill="none"></path></g><g transform="translate(287.69572706274334 757.5707211665112) rotate(0 89.0264900275904 -1.9113341623205997)"><path d="M150.26 7.06 C157.35 4.09, 164.7 1.69, 178.21 -3.85 M150.26 7.06 C157.38 4.21, 164.75 1.39, 178.21 -3.85" stroke="#2f9e44" stroke-width="1" fill="none"></path></g><g transform="translate(287.69572706274334 757.5707211665112) rotate(0 89.0264900275904 -1.9113341623205997)"><path d="M149.79 -13.46 C156.99 -11.1, 164.46 -8.18, 178.21 -3.85 M149.79 -13.46 C157.02 -11, 164.51 -8.52, 178.21 -3.85" stroke="#2f9e44" stroke-width="1" fill="none"></path></g></g><mask></mask><g stroke-linecap="round" transform="translate(471.0290603960766 655.9040544998447) rotate(0 110.83333333333337 93.33333333333337)"><path d="M32 0 C82.93 0.18, 132.45 -0.57, 189.67 0 M32 0 C83.06 -0.94, 131.99 -0.38, 189.67 0 M189.67 0 C212.09 -0.27, 221.66 9.58, 221.67 32 M189.67 0 C210.76 1.62, 221.1 10.24, 221.67 32 M221.67 32 C221.06 60.36, 221.09 86.36, 221.67 154.67 M221.67 32 C222.41 73.12, 222.03 116.72, 221.67 154.67 M221.67 154.67 C219.75 174.53, 210.66 185.04, 189.67 186.67 M221.67 154.67 C219.72 176.9, 209.37 187.31, 189.67 186.67 M189.67 186.67 C141.88 185.66, 91.35 186.35, 32 186.67 M189.67 186.67 C138.03 187.21, 86.67 187.48, 32 186.67 M32 186.67 C9.87 188.23, 1.57 175.64, 0 154.67 M32 186.67 C10.59 187.54, -0.03 175.44, 0 154.67 M0 154.67 C-1.24 124.8, 0.29 92.82, 0 32 M0 154.67 C-0.43 111.49, -1.72 66.71, 0 32 M0 32 C-0.5 12.31, 11.77 1.84, 32 0 M0 32 C1.83 11.33, 12.18 -0.37, 32 0" stroke="#2f9e44" stroke-width="1" fill="none"></path></g><g transform="translate(504.3024419471834 736.7373878331782) rotate(0 77.55995178222656 12.5)"><text x="77.55995178222656" y="0" font-family="Virgil, Segoe UI Emoji" font-size="20px" fill="#2f9e44" text-anchor="middle" style="white-space: pre;" direction="ltr" dominant-baseline="text-before-edge">MAIN SECTION</text></g><g stroke-linecap="round"><g transform="translate(698.6845326722453 753.779162561116) rotate(0 109.24709143085295 -1.0266317758573678)"><path d="M0.06 0.13 C36.48 -0.26, 182.17 -1.8, 218.58 -2.18 M-0.09 0.06 C36.3 -0.31, 182.03 -1.65, 218.44 -2" stroke="#2f9e44" stroke-width="1" fill="none"></path></g><g transform="translate(698.6845326722453 753.779162561116) rotate(0 109.24709143085295 -1.0266317758573678)"><path d="M190.35 8.53 C200.19 4.82, 209.5 1.15, 218.44 -2 M190.35 8.53 C198.42 5.3, 206.63 2.29, 218.44 -2" stroke="#2f9e44" stroke-width="1" fill="none"></path></g><g transform="translate(698.6845326722453 753.779162561116) rotate(0 109.24709143085295 -1.0266317758573678)"><path d="M190.16 -12 C200.08 -8.69, 209.46 -5.34, 218.44 -2 M190.16 -12 C198.29 -9.26, 206.55 -6.31, 218.44 -2" stroke="#2f9e44" stroke-width="1" fill="none"></path></g></g><mask></mask><g transform="translate(1191.0801898907341 10) rotate(0 216.14674377441406 46.436373804719324)"><text x="216.14674377441406" y="0" font-family="Virgil, Segoe UI Emoji" font-size="74.29819808755089px" fill="#2f9e44" text-anchor="middle" style="white-space: pre;" direction="ltr" dominant-baseline="text-before-edge">USER FLOW</text></g><g stroke-linecap="round" transform="translate(1018.488875858749 463.5710578540163) rotate(0 91.66666666666652 37.5)"><path d="M18.75 0 C63.66 -1.69, 107.91 -1.03, 164.58 0 M18.75 0 C51.71 -0.15, 86.41 -1.1, 164.58 0 M164.58 0 C177.16 -0.5, 184.11 6.83, 183.33 18.75 M164.58 0 C178.25 -2.3, 183.64 4.17, 183.33 18.75 M183.33 18.75 C183.89 31.79, 182.93 47.05, 183.33 56.25 M183.33 18.75 C183.32 27.6, 183.91 37.03, 183.33 56.25 M183.33 56.25 C185.04 68.7, 176.65 73.4, 164.58 75 M183.33 56.25 C184.53 66.83, 178.8 73.96, 164.58 75 M164.58 75 C130.87 76.59, 92.89 73.85, 18.75 75 M164.58 75 C114.15 75.2, 65.86 76.54, 18.75 75 M18.75 75 C6.74 75.39, -0.6 69.22, 0 56.25 M18.75 75 C4.46 76.91, -2.25 70.02, 0 56.25 M0 56.25 C1.66 45.89, -0.82 30, 0 18.75 M0 56.25 C0.33 46.68, 0.73 35.51, 0 18.75 M0 18.75 C-1.66 6.46, 7.41 1.52, 18.75 0 M0 18.75 C1.73 5.87, 8.46 -1.78, 18.75 0" stroke="#2f9e44" stroke-width="1" fill="none"></path></g><g transform="translate(1050.815569075709 488.5710578540163) rotate(0 59.33997344970703 12.5)"><text x="59.33997344970703" y="0" font-family="Virgil, Segoe UI Emoji" font-size="20px" fill="#2f9e44" text-anchor="middle" style="white-space: pre;" direction="ltr" dominant-baseline="text-before-edge">STAR WARS</text></g><g stroke-linecap="round" transform="translate(1022.4756755497724 558.1935841811282) rotate(0 91.66666666666652 37.5)"><path d="M18.75 0 C69.4 -1.21, 119.24 -1.09, 164.58 0 M18.75 0 C58.39 0.49, 96.37 -0.58, 164.58 0 M164.58 0 C175.48 1.04, 181.66 7.74, 183.33 18.75 M164.58 0 C176.04 -1.29, 185.56 6.03, 183.33 18.75 M183.33 18.75 C182.64 34.27, 184.68 49.65, 183.33 56.25 M183.33 18.75 C183.45 27.31, 183.2 35.07, 183.33 56.25 M183.33 56.25 C183.81 67.2, 178.74 73.04, 164.58 75 M183.33 56.25 C184.6 69.35, 177.61 75.3, 164.58 75 M164.58 75 C106.27 73.88, 52.14 75.09, 18.75 75 M164.58 75 C113.98 75.4, 64.32 76.81, 18.75 75 M18.75 75 C7.77 76.51, -0.33 70.67, 0 56.25 M18.75 75 C4.47 72.99, 0.96 70.82, 0 56.25 M0 56.25 C1.32 42.86, 0.42 30.6, 0 18.75 M0 56.25 C-1.09 42.49, 0.19 29.76, 0 18.75 M0 18.75 C0.08 6.48, 7.94 -1, 18.75 0 M0 18.75 C1.09 4.17, 5.03 -1, 18.75 0" stroke="#2f9e44" stroke-width="1" fill="none"></path></g><g transform="translate(1075.242355949349 583.1935841811282) rotate(0 38.899986267089844 12.5)"><text x="38.899986267089844" y="0" font-family="Virgil, Segoe UI Emoji" font-size="20px" fill="#2f9e44" text-anchor="middle" style="white-space: pre;" direction="ltr" dominant-baseline="text-before-edge">MARVEL</text></g><g stroke-linecap="round" transform="translate(1021.264769028156 836.3506342331762) rotate(0 91.66666666666652 37.5)"><path d="M18.75 0 C70.13 -2.88, 117.54 -1.48, 164.58 0 M18.75 0 C52.5 -0.1, 86.55 -0.21, 164.58 0 M164.58 0 C177.1 0.91, 182.6 6.89, 183.33 18.75 M164.58 0 C176.12 -0.31, 184.35 4.51, 183.33 18.75 M183.33 18.75 C184.46 28.86, 185.24 35.43, 183.33 56.25 M183.33 18.75 C183.44 29.71, 183.51 41.57, 183.33 56.25 M183.33 56.25 C183.98 67.69, 176.77 75.87, 164.58 75 M183.33 56.25 C184.68 67.33, 175.7 74.12, 164.58 75 M164.58 75 C130.43 76.95, 95.29 76.68, 18.75 75 M164.58 75 C133.49 74.53, 101.03 74.47, 18.75 75 M18.75 75 C7.86 74.19, 1.73 69.99, 0 56.25 M18.75 75 C7.9 76.69, 0.09 70.64, 0 56.25 M0 56.25 C-0.12 44.4, 0.16 31.48, 0 18.75 M0 56.25 C0.19 44.03, 0.4 30.98, 0 18.75 M0 18.75 C-1.54 5.33, 5.81 0.89, 18.75 0 M0 18.75 C1.29 4.29, 7.67 1.28, 18.75 0" stroke="#2f9e44" stroke-width="1" fill="none"></path></g><g transform="translate(1035.981492152342 861.3506342331762) rotate(0 76.94994354248047 12.5)"><text x="76.94994354248047" y="0" font-family="Virgil, Segoe UI Emoji" font-size="20px" fill="#2f9e44" text-anchor="middle" style="white-space: pre;" direction="ltr" dominant-baseline="text-before-edge">THE SIMPSONS</text></g><g stroke-linecap="round" transform="translate(1022.2560691787528 744.4776139910848) rotate(0 91.66666666666652 37.5)"><path d="M18.75 0 C62.39 -0.22, 107.71 0.95, 164.58 0 M18.75 0 C57.03 1.05, 94.84 -0.06, 164.58 0 M164.58 0 C177.69 1.91, 184.35 7.63, 183.33 18.75 M164.58 0 C179.15 -0.91, 183.35 5.25, 183.33 18.75 M183.33 18.75 C184.11 29.82, 184.08 38.82, 183.33 56.25 M183.33 18.75 C182.88 28.81, 183.11 39.42, 183.33 56.25 M183.33 56.25 C182.21 70.33, 177.26 75.8, 164.58 75 M183.33 56.25 C182.61 69.36, 175.17 77.18, 164.58 75 M164.58 75 C117.08 72.14, 72.33 73.04, 18.75 75 M164.58 75 C108.97 76.09, 52.7 76.45, 18.75 75 M18.75 75 C6.4 75.7, -0.09 69.66, 0 56.25 M18.75 75 C6.47 75.87, 0.61 68.6, 0 56.25 M0 56.25 C0.69 42.33, -1.6 30.6, 0 18.75 M0 56.25 C-1.02 46.43, 0.39 35.99, 0 18.75 M0 18.75 C-1.58 5.89, 4.64 -1.43, 18.75 0 M0 18.75 C0.28 8.09, 4.01 0, 18.75 0" stroke="#2f9e44" stroke-width="1" fill="none"></path></g><g transform="translate(1086.0427462213959 769.4776139910848) rotate(0 27.879989624023438 12.5)"><text x="27.879989624023438" y="0" font-family="Virgil, Segoe UI Emoji" font-size="20px" fill="#2f9e44" text-anchor="middle" style="white-space: pre;" direction="ltr" dominant-baseline="text-before-edge">LEGO</text></g><g stroke-linecap="round" transform="translate(1021.8263010147602 657.579983658067) rotate(0 91.66666666666652 37.5)"><path d="M18.75 0 C56.9 1.49, 94.08 -0.73, 164.58 0 M18.75 0 C67.58 0.16, 114.64 -0.73, 164.58 0 M164.58 0 C176.21 -0.37, 183.88 5.6, 183.33 18.75 M164.58 0 C177.85 0.59, 184.08 5.03, 183.33 18.75 M183.33 18.75 C182.26 28.21, 182.73 38.78, 183.33 56.25 M183.33 18.75 C184.03 27.58, 183.89 36.2, 183.33 56.25 M183.33 56.25 C185.23 69.19, 178.16 73.42, 164.58 75 M183.33 56.25 C182.68 66.79, 178.94 74.07, 164.58 75 M164.58 75 C109.7 76.13, 53.52 76.85, 18.75 75 M164.58 75 C120.18 75.03, 75.25 75.2, 18.75 75 M18.75 75 C6.12 75.6, 0.33 68.8, 0 56.25 M18.75 75 C7.12 73.22, -1.77 67.7, 0 56.25 M0 56.25 C-1.87 47.05, 0.95 36.59, 0 18.75 M0 56.25 C-0.65 48.09, 0.87 38.72, 0 18.75 M0 18.75 C0 6.9, 5.11 -0.52, 18.75 0 M0 18.75 C-0.91 6.86, 6.38 0.15, 18.75 0" stroke="#2f9e44" stroke-width="1" fill="none"></path></g><g transform="translate(1082.1129856867979 682.579983658067) rotate(0 31.379981994628906 12.5)"><text x="31.379981994628906" y="0" font-family="Virgil, Segoe UI Emoji" font-size="20px" fill="#2f9e44" text-anchor="middle" style="white-space: pre;" direction="ltr" dominant-baseline="text-before-edge">PIXAR</text></g><g stroke-linecap="round" transform="translate(1025.6068322123085 929.2272405499084) rotate(0 91.66666666666652 37.5)"><path d="M18.75 0 C54.19 0.53, 89.35 2.53, 164.58 0 M18.75 0 C69.15 -0.99, 117.13 0.4, 164.58 0 M164.58 0 C175.37 0.25, 183.78 5.12, 183.33 18.75 M164.58 0 C179.18 -1.17, 181.99 4.94, 183.33 18.75 M183.33 18.75 C182.21 34.69, 181.86 46.05, 183.33 56.25 M183.33 18.75 C183.57 31.49, 183.09 45.26, 183.33 56.25 M183.33 56.25 C183.32 68.85, 176.18 73.9, 164.58 75 M183.33 56.25 C184.65 69.85, 179.31 77.25, 164.58 75 M164.58 75 C133.34 73.19, 102.91 72.01, 18.75 75 M164.58 75 C115.35 77.02, 68.54 75.41, 18.75 75 M18.75 75 C4.55 74.02, -1.21 69.23, 0 56.25 M18.75 75 C7.28 73.78, 1.09 69.16, 0 56.25 M0 56.25 C1.75 44.78, -0.66 33.69, 0 18.75 M0 56.25 C-0.6 46.68, 0.8 38.88, 0 18.75 M0 18.75 C-1.36 5.39, 5.68 1.57, 18.75 0 M0 18.75 C-0.16 6.61, 8.43 0.61, 18.75 0" stroke="#2f9e44" stroke-width="1" fill="none"></path></g><g transform="translate(1079.6035235982133 954.2272405499084) rotate(0 37.66997528076172 12.5)"><text x="37.66997528076172" y="0" font-family="Virgil, Segoe UI Emoji" font-size="20px" fill="#2f9e44" text-anchor="middle" style="white-space: pre;" direction="ltr" dominant-baseline="text-before-edge">DISNEY</text></g><g stroke-linecap="round"><g transform="translate(915.0228851757572 498.54272198037404) rotate(0 -1.1496785648175774 242.19803009572314)"><path d="M-0.01 -0.1 C-0.39 80.64, -1.84 403.58, -2.19 484.3 M-0.2 0.18 C-0.6 80.95, -1.97 403.79, -2.29 484.5" stroke="#2f9e44" stroke-width="1" fill="none"></path></g></g><mask></mask><g stroke-linecap="round"><g transform="translate(914.0911510176809 499.4523741236303) rotate(0 41.712730880066715 -0.2988387309822542)"><path d="M0.04 0.01 C13.96 -0.07, 69.61 -0.54, 83.54 -0.61 M-0.11 -0.12 C13.78 -0.17, 69.5 -0.4, 83.45 -0.49" stroke="#2f9e44" stroke-width="1" fill="none"></path></g><g transform="translate(914.0911510176809 499.4523741236303) rotate(0 41.712730880066715 -0.2988387309822542)"><path d="M55.31 9.91 C64.78 6.53, 73.95 3.19, 83.45 -0.49 M55.31 9.91 C65.1 6.19, 74.96 2.68, 83.45 -0.49" stroke="#2f9e44" stroke-width="1" fill="none"></path></g><g transform="translate(914.0911510176809 499.4523741236303) rotate(0 41.712730880066715 -0.2988387309822542)"><path d="M55.21 -10.61 C64.69 -7.11, 73.89 -3.56, 83.45 -0.49 M55.21 -10.61 C65.05 -7.17, 74.94 -3.52, 83.45 -0.49" stroke="#2f9e44" stroke-width="1" fill="none"></path></g></g><mask></mask><g stroke-linecap="round"><g transform="translate(915.8277411145912 596.0619497300313) rotate(0 41.82019682315433 -0.29438128457422863)"><path d="M-0.05 -0.06 C13.85 -0.14, 69.47 -0.44, 83.4 -0.53 M0.2 -0.22 C14.14 -0.28, 69.81 -0.33, 83.69 -0.37" stroke="#2f9e44" stroke-width="1" fill="none"></path></g><g transform="translate(915.8277411145912 596.0619497300313) rotate(0 41.82019682315433 -0.29438128457422863)"><path d="M55.51 9.94 C64.18 6.59, 72.96 3.65, 83.69 -0.37 M55.51 9.94 C62.12 7.54, 68.73 5.07, 83.69 -0.37" stroke="#2f9e44" stroke-width="1" fill="none"></path></g><g transform="translate(915.8277411145912 596.0619497300313) rotate(0 41.82019682315433 -0.29438128457422863)"><path d="M55.48 -10.58 C64.14 -7.54, 72.94 -4.09, 83.69 -0.37 M55.48 -10.58 C62.11 -8.14, 68.73 -5.77, 83.69 -0.37" stroke="#2f9e44" stroke-width="1" fill="none"></path></g></g><mask></mask><g stroke-linecap="round"><g transform="translate(912.8431330823507 694.5540147939871) rotate(0 41.67766189776569 -0.26012632220670184)"><path d="M-0.15 0.06 C13.75 -0.02, 69.58 -0.51, 83.5 -0.58 M0.05 -0.04 C13.91 -0.1, 69.46 -0.35, 83.4 -0.44" stroke="#2f9e44" stroke-width="1" fill="none"></path></g><g transform="translate(912.8431330823507 694.5540147939871) rotate(0 41.67766189776569 -0.26012632220670184)"><path d="M55.26 9.97 C66.51 5.94, 77.31 1.61, 83.4 -0.44 M55.26 9.97 C65.9 6.15, 76.33 2.24, 83.4 -0.44" stroke="#2f9e44" stroke-width="1" fill="none"></path></g><g transform="translate(912.8431330823507 694.5540147939871) rotate(0 41.67766189776569 -0.26012632220670184)"><path d="M55.15 -10.55 C66.42 -6.47, 77.26 -2.69, 83.4 -0.44 M55.15 -10.55 C65.81 -6.65, 76.28 -2.84, 83.4 -0.44" stroke="#2f9e44" stroke-width="1" fill="none"></path></g></g><mask></mask><g stroke-linecap="round"><g transform="translate(914.8328717705112 775.1384316644967) rotate(0 41.75762974555096 -0.22074668943082543)"><path d="M-0.04 0.09 C13.89 0.02, 69.66 -0.22, 83.55 -0.34 M0.21 0 C14.13 -0.1, 69.58 -0.44, 83.48 -0.53" stroke="#2f9e44" stroke-width="1" fill="none"></path></g><g transform="translate(914.8328717705112 775.1384316644967) rotate(0 41.75762974555096 -0.22074668943082543)"><path d="M55.35 9.91 C63.66 7.05, 71.89 3.61, 83.48 -0.53 M55.35 9.91 C61.17 7.88, 66.86 5.7, 83.48 -0.53" stroke="#2f9e44" stroke-width="1" fill="none"></path></g><g transform="translate(914.8328717705112 775.1384316644967) rotate(0 41.75762974555096 -0.22074668943082543)"><path d="M55.22 -10.61 C63.57 -7.53, 71.84 -5.03, 83.48 -0.53 M55.22 -10.61 C61.1 -8.45, 66.81 -6.43, 83.48 -0.53" stroke="#2f9e44" stroke-width="1" fill="none"></path></g></g><mask></mask><g stroke-linecap="round"><g transform="translate(917.8174798027526 871.640758040292) rotate(0 41.766534753394694 -0.20229617665575006)"><path d="M0.1 0.08 C14.03 -0.02, 69.67 -0.4, 83.56 -0.48 M-0.03 -0.01 C13.89 -0.09, 69.6 -0.19, 83.49 -0.3" stroke="#2f9e44" stroke-width="1" fill="none"></path></g><g transform="translate(917.8174798027526 871.640758040292) rotate(0 41.766534753394694 -0.20229617665575006)"><path d="M55.35 10.08 C63.72 7.18, 71.79 3.91, 83.49 -0.3 M55.35 10.08 C64.9 6.41, 74.67 3, 83.49 -0.3" stroke="#2f9e44" stroke-width="1" fill="none"></path></g><g transform="translate(917.8174798027526 871.640758040292) rotate(0 41.766534753394694 -0.20229617665575006)"><path d="M55.26 -10.44 C63.68 -7.33, 71.77 -4.6, 83.49 -0.3 M55.26 -10.44 C64.82 -7.08, 74.62 -3.45, 83.49 -0.3" stroke="#2f9e44" stroke-width="1" fill="none"></path></g></g><mask></mask><g stroke-linecap="round"><g transform="translate(913.8380024264311 983.0661245772926) rotate(0 41.69447472745833 -0.2861648501103673)"><path d="M0.07 0 C13.97 -0.12, 69.57 -0.5, 83.46 -0.57 M-0.07 -0.12 C13.8 -0.17, 69.37 -0.41, 83.33 -0.44" stroke="#2f9e44" stroke-width="1" fill="none"></path></g><g transform="translate(913.8380024264311 983.0661245772926) rotate(0 41.69447472745833 -0.2861648501103673)"><path d="M55.18 9.91 C65.11 6.2, 74.84 2.38, 83.33 -0.44 M55.18 9.91 C63.98 6.79, 72.63 3.43, 83.33 -0.44" stroke="#2f9e44" stroke-width="1" fill="none"></path></g><g transform="translate(913.8380024264311 983.0661245772926) rotate(0 41.69447472745833 -0.2861648501103673)"><path d="M55.11 -10.61 C65.09 -7.08, 74.85 -3.64, 83.33 -0.44 M55.11 -10.61 C63.92 -7.35, 72.6 -4.33, 83.33 -0.44" stroke="#2f9e44" stroke-width="1" fill="none"></path></g></g><mask></mask><g stroke-linecap="round"><g transform="translate(1213.2075623286903 501.170212265086) rotate(0 41.67336167776557 -0.23644855105823126)"><path d="M-0.08 -0.1 C13.82 -0.18, 69.5 -0.34, 83.43 -0.41 M0.14 0.17 C14.02 0.03, 69.41 -0.54, 83.29 -0.64" stroke="#2f9e44" stroke-width="1" fill="none"></path></g><g transform="translate(1213.2075623286903 501.170212265086) rotate(0 41.67336167776557 -0.23644855105823126)"><path d="M55.19 9.87 C63.7 6.55, 72.71 3.41, 83.29 -0.64 M55.19 9.87 C62.06 7.25, 69.19 4.57, 83.29 -0.64" stroke="#2f9e44" stroke-width="1" fill="none"></path></g><g transform="translate(1213.2075623286903 501.170212265086) rotate(0 41.67336167776557 -0.23644855105823126)"><path d="M55.01 -10.65 C63.59 -7.61, 72.66 -4.39, 83.29 -0.64 M55.01 -10.65 C61.89 -8.2, 69.08 -5.81, 83.29 -0.64" stroke="#2f9e44" stroke-width="1" fill="none"></path></g></g><mask></mask><g stroke-linecap="round"><g transform="translate(1210.3943882208107 597.62363703609) rotate(0 41.70752102517372 -0.3144196314722194)"><path d="M0 0 C13.92 -0.07, 69.69 -0.33, 83.59 -0.4 M-0.17 -0.13 C13.73 -0.24, 69.55 -0.6, 83.53 -0.63" stroke="#2f9e44" stroke-width="1" fill="none"></path></g><g transform="translate(1210.3943882208107 597.62363703609) rotate(0 41.70752102517372 -0.3144196314722194)"><path d="M55.38 9.76 C65.34 6.29, 75.44 2.18, 83.53 -0.63 M55.38 9.76 C64.03 6.63, 72.97 3.28, 83.53 -0.63" stroke="#2f9e44" stroke-width="1" fill="none"></path></g><g transform="translate(1210.3943882208107 597.62363703609) rotate(0 41.70752102517372 -0.3144196314722194)"><path d="M55.29 -10.76 C65.28 -6.96, 75.41 -3.81, 83.53 -0.63 M55.29 -10.76 C63.94 -7.51, 72.91 -4.49, 83.53 -0.63" stroke="#2f9e44" stroke-width="1" fill="none"></path></g></g><mask></mask><g stroke-linecap="round"><g transform="translate(1209.3973028648468 693.3438312086339) rotate(0 41.75262218975047 -0.2703232602980279)"><path d="M-0.11 0.1 C13.79 0.04, 69.44 -0.33, 83.35 -0.41 M0.1 0.03 C14.05 -0.08, 69.69 -0.53, 83.62 -0.64" stroke="#2f9e44" stroke-width="1" fill="none"></path></g><g transform="translate(1209.3973028648468 693.3438312086339) rotate(0 41.75262218975047 -0.2703232602980279)"><path d="M55.51 9.85 C62.55 7.08, 69.3 4.58, 83.62 -0.64 M55.51 9.85 C65.37 6.33, 74.93 2.59, 83.62 -0.64" stroke="#2f9e44" stroke-width="1" fill="none"></path></g><g transform="translate(1209.3973028648468 693.3438312086339) rotate(0 41.75262218975047 -0.2703232602980279)"><path d="M55.35 -10.67 C62.42 -8.45, 69.21 -5.96, 83.62 -0.64 M55.35 -10.67 C65.24 -7.11, 74.85 -3.76, 83.62 -0.64" stroke="#2f9e44" stroke-width="1" fill="none"></path></g></g><mask></mask><g stroke-linecap="round"><g transform="translate(1211.3914735767748 784.078598601358) rotate(0 41.772781010662015 -0.36951832414104047)"><path d="M-0.07 -0.05 C13.86 -0.13, 69.67 -0.39, 83.62 -0.44 M0.16 -0.2 C14.08 -0.33, 69.67 -0.62, 83.57 -0.69" stroke="#2f9e44" stroke-width="1" fill="none"></path></g><g transform="translate(1211.3914735767748 784.078598601358) rotate(0 41.772781010662015 -0.36951832414104047)"><path d="M55.44 9.72 C64.06 6.79, 72.93 3.57, 83.57 -0.69 M55.44 9.72 C65.36 6.07, 75.22 2.44, 83.57 -0.69" stroke="#2f9e44" stroke-width="1" fill="none"></path></g><g transform="translate(1211.3914735767748 784.078598601358) rotate(0 41.772781010662015 -0.36951832414104047)"><path d="M55.33 -10.8 C63.99 -7.37, 72.89 -4.22, 83.57 -0.69 M55.33 -10.8 C65.31 -7.28, 75.2 -3.74, 83.57 -0.69" stroke="#2f9e44" stroke-width="1" fill="none"></path></g></g><mask></mask><g stroke-linecap="round"><g transform="translate(1204.411876085027 874.8133659940818) rotate(0 41.73219801106359 -0.49849995170302464)"><path d="M-0.09 -0.15 C13.85 -0.28, 69.6 -0.75, 83.55 -0.87 M0.13 0.1 C14.06 -0.08, 69.57 -0.96, 83.48 -1.1" stroke="#2f9e44" stroke-width="1" fill="none"></path></g><g transform="translate(1204.411876085027 874.8133659940818) rotate(0 41.73219801106359 -0.49849995170302464)"><path d="M55.42 9.54 C62.39 6.96, 70.05 4.33, 83.48 -1.1 M55.42 9.54 C64.58 5.96, 73.86 2.51, 83.48 -1.1" stroke="#2f9e44" stroke-width="1" fill="none"></path></g><g transform="translate(1204.411876085027 874.8133659940818) rotate(0 41.73219801106359 -0.49849995170302464)"><path d="M55.15 -10.98 C62.18 -8.26, 69.91 -5.59, 83.48 -1.1 M55.15 -10.98 C64.41 -7.84, 73.77 -4.57, 83.48 -1.1" stroke="#2f9e44" stroke-width="1" fill="none"></path></g></g><mask></mask><g stroke-linecap="round"><g transform="translate(1211.3914735767748 966.5452187427695) rotate(0 41.76145298929987 -0.2502371531512608)"><path d="M0.15 0.11 C14.07 0.04, 69.6 -0.3, 83.48 -0.39 M0.04 0.04 C13.95 -0.07, 69.49 -0.49, 83.37 -0.61" stroke="#2f9e44" stroke-width="1" fill="none"></path></g><g transform="translate(1211.3914735767748 966.5452187427695) rotate(0 41.76145298929987 -0.2502371531512608)"><path d="M55.26 9.87 C62.74 7.13, 69.94 4.28, 83.37 -0.61 M55.26 9.87 C64.55 6.55, 73.74 2.98, 83.37 -0.61" stroke="#2f9e44" stroke-width="1" fill="none"></path></g><g transform="translate(1211.3914735767748 966.5452187427695) rotate(0 41.76145298929987 -0.2502371531512608)"><path d="M55.09 -10.65 C62.63 -8.09, 69.87 -5.63, 83.37 -0.61 M55.09 -10.65 C64.43 -7.22, 73.67 -4.03, 83.37 -0.61" stroke="#2f9e44" stroke-width="1" fill="none"></path></g></g><mask></mask><g stroke-linecap="round" transform="translate(1311.444617342263 464.3560657413045) rotate(0 91.66666666666652 37.5)"><path d="M18.75 0 C70.6 1.41, 125.17 2.82, 164.58 0 M18.75 0 C71.35 -0.78, 124.91 -0.86, 164.58 0 M164.58 0 C177.84 -0.86, 182.41 7.42, 183.33 18.75 M164.58 0 C178.81 -0.32, 184.55 4.63, 183.33 18.75 M183.33 18.75 C181.77 27.93, 183.2 36.29, 183.33 56.25 M183.33 18.75 C182.54 28.03, 182.76 36.22, 183.33 56.25 M183.33 56.25 C184.64 67.94, 177.47 74.14, 164.58 75 M183.33 56.25 C184.39 69.47, 175.21 76.4, 164.58 75 M164.58 75 C132.32 77.97, 98.81 75.43, 18.75 75 M164.58 75 C111.1 74.28, 57.95 73.17, 18.75 75 M18.75 75 C8.16 76.9, -1.24 69.89, 0 56.25 M18.75 75 C7.85 75.01, 0.64 67.59, 0 56.25 M0 56.25 C-0.55 44.1, -0.18 31.9, 0 18.75 M0 56.25 C-0.07 48.41, 0.27 39.48, 0 18.75 M0 18.75 C1.54 6.1, 8.25 1.6, 18.75 0 M0 18.75 C1.33 4.58, 8.48 -0.92, 18.75 0" stroke="#2f9e44" stroke-width="1" fill="none"></path></g><g transform="translate(1323.4213273438904 489.3560657413045) rotate(0 79.68995666503906 12.5)"><text x="79.68995666503906" y="0" font-family="Virgil, Segoe UI Emoji" font-size="20px" fill="#2f9e44" text-anchor="middle" style="white-space: pre;" direction="ltr" dominant-baseline="text-before-edge">ALL PRODUCTS</text></g><g stroke-linecap="round" transform="translate(1312.553688376472 556.408961580692) rotate(0 91.66666666666652 37.5)"><path d="M18.75 0 C56.58 -2.17, 96.05 -2.34, 164.58 0 M18.75 0 C54.95 1.41, 92.38 0.11, 164.58 0 M164.58 0 C178.97 1.81, 182.76 5.16, 183.33 18.75 M164.58 0 C176.94 0.39, 184.95 8.53, 183.33 18.75 M183.33 18.75 C184.28 29.44, 184.14 37.29, 183.33 56.25 M183.33 18.75 C183.41 32.73, 183.6 48.5, 183.33 56.25 M183.33 56.25 C183.62 69.68, 178.13 76.3, 164.58 75 M183.33 56.25 C181.81 67.18, 175.36 73.23, 164.58 75 M164.58 75 C134.51 78.08, 105.37 78.02, 18.75 75 M164.58 75 C125.99 74.3, 86.12 73.98, 18.75 75 M18.75 75 C5.31 74.99, -1.46 68.14, 0 56.25 M18.75 75 C7.49 73.97, 0.32 67.84, 0 56.25 M0 56.25 C-1.18 44.12, -0.52 29.56, 0 18.75 M0 56.25 C-0.53 46.97, 0.29 38.16, 0 18.75 M0 18.75 C-1.68 4.77, 6.53 -1.21, 18.75 0 M0 18.75 C0.09 5.19, 7.06 -1.3, 18.75 0" stroke="#2f9e44" stroke-width="1" fill="none"></path></g><g transform="translate(1324.5303983780996 581.408961580692) rotate(0 79.68995666503906 12.5)"><text x="79.68995666503906" y="0" font-family="Virgil, Segoe UI Emoji" font-size="20px" fill="#2f9e44" text-anchor="middle" style="white-space: pre;" direction="ltr" dominant-baseline="text-before-edge">ALL PRODUCTS</text></g><g stroke-linecap="round" transform="translate(1309.2264752738438 650.6799994884982) rotate(0 91.66666666666652 37.5)"><path d="M18.75 0 C66.28 -0.78, 113.8 -0.25, 164.58 0 M18.75 0 C49.57 0.26, 82.05 0.16, 164.58 0 M164.58 0 C178.55 -1.38, 183.41 4.65, 183.33 18.75 M164.58 0 C177.29 -0.14, 184.35 8.41, 183.33 18.75 M183.33 18.75 C183.82 29.8, 182.41 41.41, 183.33 56.25 M183.33 18.75 C183.75 26.5, 183.85 34.24, 183.33 56.25 M183.33 56.25 C182.66 70.24, 177.62 73.29, 164.58 75 M183.33 56.25 C184.63 67.56, 175.03 73.3, 164.58 75 M164.58 75 C134.94 77.15, 102.24 74.69, 18.75 75 M164.58 75 C110.38 73.57, 54.78 73.97, 18.75 75 M18.75 75 C6.13 76.62, 1.71 69.11, 0 56.25 M18.75 75 C5.84 75.44, 1.95 71, 0 56.25 M0 56.25 C-1.73 43.87, -0.56 35.7, 0 18.75 M0 56.25 C0.09 46.3, -0.79 36.77, 0 18.75 M0 18.75 C-1.75 5.86, 4.43 -1.56, 18.75 0 M0 18.75 C-0.72 5.75, 8.18 1.86, 18.75 0" stroke="#2f9e44" stroke-width="1" fill="none"></path></g><g transform="translate(1321.2031852754712 675.6799994884982) rotate(0 79.68995666503906 12.5)"><text x="79.68995666503906" y="0" font-family="Virgil, Segoe UI Emoji" font-size="20px" fill="#2f9e44" text-anchor="middle" style="white-space: pre;" direction="ltr" dominant-baseline="text-before-edge">ALL PRODUCTS</text></g><g stroke-linecap="round" transform="translate(1307.0083332054248 744.9510373963053) rotate(0 91.66666666666652 37.5)"><path d="M18.75 0 C63.5 -2.24, 108.25 0.78, 164.58 0 M18.75 0 C69.53 -1.64, 119.96 -2.17, 164.58 0 M164.58 0 C176.9 0.44, 182.73 7.14, 183.33 18.75 M164.58 0 C176.11 -0.8, 182.97 6.48, 183.33 18.75 M183.33 18.75 C182 34.3, 183.13 45.72, 183.33 56.25 M183.33 18.75 C183.28 26.1, 184.36 35.26, 183.33 56.25 M183.33 56.25 C184.6 69.6, 178.11 76.98, 164.58 75 M183.33 56.25 C182.85 69.62, 177.41 76.99, 164.58 75 M164.58 75 C109.32 76.1, 52.25 74.56, 18.75 75 M164.58 75 C133.47 74.89, 103.51 75.75, 18.75 75 M18.75 75 C5.17 75.4, 0.76 66.91, 0 56.25 M18.75 75 C6.36 72.8, 0.19 70.66, 0 56.25 M0 56.25 C-1.1 47.78, 0.47 37.45, 0 18.75 M0 56.25 C0.36 42.58, -0.09 29.43, 0 18.75 M0 18.75 C0.2 7.77, 7.13 1.31, 18.75 0 M0 18.75 C-2.06 4.25, 6.78 -0.39, 18.75 0" stroke="#2f9e44" stroke-width="1" fill="none"></path></g><g transform="translate(1318.9850432070523 769.9510373963053) rotate(0 79.68995666503906 12.5)"><text x="79.68995666503906" y="0" font-family="Virgil, Segoe UI Emoji" font-size="20px" fill="#2f9e44" text-anchor="middle" style="white-space: pre;" direction="ltr" dominant-baseline="text-before-edge">ALL PRODUCTS</text></g><g stroke-linecap="round" transform="translate(1304.790191137006 832.5676490988542) rotate(0 91.66666666666652 37.5)"><path d="M18.75 0 C71.86 2.35, 127.3 1.04, 164.58 0 M18.75 0 C69.96 -1.78, 120.41 -1.75, 164.58 0 M164.58 0 C176.14 0.96, 183.07 5.3, 183.33 18.75 M164.58 0 C179.3 0.35, 181.54 5.11, 183.33 18.75 M183.33 18.75 C181.73 30.58, 182.27 45.46, 183.33 56.25 M183.33 18.75 C184.51 30.69, 183.05 44.59, 183.33 56.25 M183.33 56.25 C182.94 70.63, 178.29 73.09, 164.58 75 M183.33 56.25 C182.86 70.25, 177.65 76.24, 164.58 75 M164.58 75 C122.46 72.58, 82.54 72.55, 18.75 75 M164.58 75 C109.12 74.07, 53.88 74.42, 18.75 75 M18.75 75 C6.41 73.64, -1.67 68.69, 0 56.25 M18.75 75 C5.14 76.91, 2.07 70.8, 0 56.25 M0 56.25 C-0.23 48.01, 2.02 37.73, 0 18.75 M0 56.25 C-0.34 45.72, 0.86 34.61, 0 18.75 M0 18.75 C1.24 7.25, 5.21 1.72, 18.75 0 M0 18.75 C1.21 4.26, 8.22 -2.15, 18.75 0" stroke="#2f9e44" stroke-width="1" fill="none"></path></g><g transform="translate(1316.7669011386336 857.5676490988542) rotate(0 79.68995666503906 12.5)"><text x="79.68995666503906" y="0" font-family="Virgil, Segoe UI Emoji" font-size="20px" fill="#2f9e44" text-anchor="middle" style="white-space: pre;" direction="ltr" dominant-baseline="text-before-edge">ALL PRODUCTS</text></g><g stroke-linecap="round" transform="translate(1302.5720490685871 930.1659001092896) rotate(0 91.66666666666652 37.5)"><path d="M18.75 0 C53.6 1.02, 86.53 0.47, 164.58 0 M18.75 0 C72.85 -0.28, 127.59 0.12, 164.58 0 M164.58 0 C175.3 -0.21, 182.43 5.9, 183.33 18.75 M164.58 0 C178.52 -1.83, 181.41 4.9, 183.33 18.75 M183.33 18.75 C184.25 27.56, 184.26 36.08, 183.33 56.25 M183.33 18.75 C184 28.34, 183.35 37.54, 183.33 56.25 M183.33 56.25 C182.9 70.65, 175.48 74.11, 164.58 75 M183.33 56.25 C182.52 67.74, 178 75.76, 164.58 75 M164.58 75 C129.39 74.71, 91.29 75.07, 18.75 75 M164.58 75 C135.21 74.98, 105.16 75.88, 18.75 75 M18.75 75 C5.54 74.7, -1.14 66.86, 0 56.25 M18.75 75 C7.12 73.55, 1.77 70, 0 56.25 M0 56.25 C0.63 48.96, -0.52 40.6, 0 18.75 M0 56.25 C-0.42 46.25, -1.06 35.38, 0 18.75 M0 18.75 C0.27 5.37, 5.61 0.92, 18.75 0 M0 18.75 C1 7.92, 6.83 2.14, 18.75 0" stroke="#2f9e44" stroke-width="1" fill="none"></path></g><g transform="translate(1314.5487590702146 955.1659001092896) rotate(0 79.68995666503906 12.5)"><text x="79.68995666503906" y="0" font-family="Virgil, Segoe UI Emoji" font-size="20px" fill="#2f9e44" text-anchor="middle" style="white-space: pre;" direction="ltr" dominant-baseline="text-before-edge">ALL PRODUCTS</text></g><g stroke-linecap="round"><g transform="translate(1502.7651619544138 500.0611412308765) rotate(0 41.73459583344527 -0.2625352814283701)"><path d="M-0.14 -0.02 C13.81 -0.09, 69.65 -0.44, 83.6 -0.51 M0.06 -0.15 C14.01 -0.2, 69.63 -0.32, 83.55 -0.34" stroke="#2f9e44" stroke-width="1" fill="none"></path></g><g transform="translate(1502.7651619544138 500.0611412308765) rotate(0 41.73459583344527 -0.2625352814283701)"><path d="M55.38 9.97 C62.58 7.61, 69.76 4.97, 83.55 -0.34 M55.38 9.97 C64.13 6.69, 72.8 3.75, 83.55 -0.34" stroke="#2f9e44" stroke-width="1" fill="none"></path></g><g transform="translate(1502.7651619544138 500.0611412308765) rotate(0 41.73459583344527 -0.2625352814283701)"><path d="M55.34 -10.55 C62.54 -7.65, 69.72 -5.03, 83.55 -0.34 M55.34 -10.55 C64.08 -7.53, 72.75 -4.18, 83.55 -0.34" stroke="#2f9e44" stroke-width="1" fill="none"></path></g></g><mask></mask><g stroke-linecap="round"><g transform="translate(1499.9519878465342 596.5145660018809) rotate(0 41.80836770222015 -0.24934279873809828)"><path d="M0.13 -0.04 C14.08 -0.11, 69.73 -0.39, 83.6 -0.46 M0.01 -0.19 C13.97 -0.24, 69.62 -0.25, 83.55 -0.27" stroke="#2f9e44" stroke-width="1" fill="none"></path></g><g transform="translate(1499.9519878465342 596.5145660018809) rotate(0 41.80836770222015 -0.24934279873809828)"><path d="M55.37 10.01 C61.17 8.08, 67.15 5.43, 83.55 -0.27 M55.37 10.01 C64.28 6.94, 72.98 3.64, 83.55 -0.27" stroke="#2f9e44" stroke-width="1" fill="none"></path></g><g transform="translate(1499.9519878465342 596.5145660018809) rotate(0 41.80836770222015 -0.24934279873809828)"><path d="M55.35 -10.51 C61.15 -8.16, 67.14 -6.53, 83.55 -0.27 M55.35 -10.51 C64.29 -7.16, 73 -4.05, 83.55 -0.27" stroke="#2f9e44" stroke-width="1" fill="none"></path></g></g><mask></mask><g stroke-linecap="round"><g transform="translate(1498.9549024905698 692.2347601744243) rotate(0 41.80785051974942 -0.21955659232992275)"><path d="M0.13 0.01 C14 -0.06, 69.43 -0.35, 83.34 -0.45 M0.01 -0.11 C13.91 -0.15, 69.68 -0.19, 83.6 -0.25" stroke="#2f9e44" stroke-width="1" fill="none"></path></g><g transform="translate(1498.9549024905698 692.2347601744243) rotate(0 41.80785051974942 -0.21955659232992275)"><path d="M55.44 10.07 C66.32 5.79, 77.19 2.26, 83.6 -0.25 M55.44 10.07 C61.7 7.76, 67.84 5.54, 83.6 -0.25" stroke="#2f9e44" stroke-width="1" fill="none"></path></g><g transform="translate(1498.9549024905698 692.2347601744243) rotate(0 41.80785051974942 -0.21955659232992275)"><path d="M55.39 -10.45 C66.28 -6.82, 77.18 -2.43, 83.6 -0.25 M55.39 -10.45 C61.69 -8.19, 67.84 -5.84, 83.6 -0.25" stroke="#2f9e44" stroke-width="1" fill="none"></path></g></g><mask></mask><g stroke-linecap="round"><g transform="translate(1500.949073202498 782.9695275671486) rotate(0 41.719331304713364 -0.281695512110673)"><path d="M-0.14 0.02 C13.77 -0.08, 69.62 -0.52, 83.57 -0.58 M0.06 -0.1 C13.95 -0.18, 69.59 -0.37, 83.51 -0.45" stroke="#2f9e44" stroke-width="1" fill="none"></path></g><g transform="translate(1500.949073202498 782.9695275671486) rotate(0 41.719331304713364 -0.281695512110673)"><path d="M55.36 9.93 C66.24 6.16, 76.82 2.2, 83.51 -0.45 M55.36 9.93 C65.83 6.11, 76.57 2.05, 83.51 -0.45" stroke="#2f9e44" stroke-width="1" fill="none"></path></g><g transform="translate(1500.949073202498 782.9695275671486) rotate(0 41.719331304713364 -0.281695512110673)"><path d="M55.27 -10.59 C66.18 -6.46, 76.8 -2.51, 83.51 -0.45 M55.27 -10.59 C65.78 -6.68, 76.55 -3.01, 83.51 -0.45" stroke="#2f9e44" stroke-width="1" fill="none"></path></g></g><mask></mask><g stroke-linecap="round"><g transform="translate(1493.9694757107502 873.7042949598724) rotate(0 41.783038067716575 -0.43781288736443)"><path d="M0.1 -0.12 C14.05 -0.25, 69.7 -0.69, 83.6 -0.82 M-0.03 0.15 C13.93 -0.03, 69.64 -0.87, 83.54 -1.02" stroke="#2f9e44" stroke-width="1" fill="none"></path></g><g transform="translate(1493.9694757107502 873.7042949598724) rotate(0 41.783038067716575 -0.43781288736443)"><path d="M55.49 9.61 C61.11 7.6, 67.4 5.16, 83.54 -1.02 M55.49 9.61 C64.32 6.18, 73.04 2.89, 83.54 -1.02" stroke="#2f9e44" stroke-width="1" fill="none"></path></g><g transform="translate(1493.9694757107502 873.7042949598724) rotate(0 41.783038067716575 -0.43781288736443)"><path d="M55.22 -10.91 C60.9 -8.64, 67.25 -6.81, 83.54 -1.02 M55.22 -10.91 C64.11 -7.89, 72.91 -4.73, 83.54 -1.02" stroke="#2f9e44" stroke-width="1" fill="none"></path></g></g><mask></mask><g stroke-linecap="round"><g transform="translate(1500.949073202498 965.4361477085602) rotate(0 41.742995118602835 -0.16654381845717126)"><path d="M0.12 0.11 C14.02 0.06, 69.61 -0.37, 83.48 -0.45 M0 0.04 C13.87 0.02, 69.43 -0.14, 83.37 -0.25" stroke="#2f9e44" stroke-width="1" fill="none"></path></g><g transform="translate(1500.949073202498 965.4361477085602) rotate(0 41.742995118602835 -0.16654381845717126)"><path d="M55.23 10.15 C65.74 6.33, 75.83 2.26, 83.37 -0.25 M55.23 10.15 C65.51 6.33, 75.85 2.57, 83.37 -0.25" stroke="#2f9e44" stroke-width="1" fill="none"></path></g><g transform="translate(1500.949073202498 965.4361477085602) rotate(0 41.742995118602835 -0.16654381845717126)"><path d="M55.13 -10.37 C65.65 -6.7, 75.78 -3.28, 83.37 -0.25 M55.13 -10.37 C65.45 -6.63, 75.82 -2.82, 83.37 -0.25" stroke="#2f9e44" stroke-width="1" fill="none"></path></g></g><mask></mask><g stroke-linecap="round" transform="translate(1601.0022169679862 463.24699470709515) rotate(0 91.6666666666664 37.5)"><path d="M18.75 0 C74.61 -1.91, 131.28 -0.02, 164.58 0 M18.75 0 C55.97 0.55, 94.7 -0.26, 164.58 0 M164.58 0 C175.44 -0.78, 184.11 6.19, 183.33 18.75 M164.58 0 C176.48 -0.23, 184.4 6.27, 183.33 18.75 M183.33 18.75 C183.42 27.22, 182.84 39.87, 183.33 56.25 M183.33 18.75 C184.37 26.48, 183.91 34.48, 183.33 56.25 M183.33 56.25 C184.9 70.73, 177.12 75.68, 164.58 75 M183.33 56.25 C182.41 67.14, 175.82 75.43, 164.58 75 M164.58 75 C135.5 74.24, 103.9 75.85, 18.75 75 M164.58 75 C120.13 73.95, 76.75 73.03, 18.75 75 M18.75 75 C5.57 75.82, -0.16 68.18, 0 56.25 M18.75 75 C4.43 74.2, 1.64 70.31, 0 56.25 M0 56.25 C-0.14 40.01, 1.37 26.73, 0 18.75 M0 56.25 C0.33 46.19, 0.83 36.14, 0 18.75 M0 18.75 C0.25 7.95, 7.55 -0.06, 18.75 0 M0 18.75 C-1.02 7.52, 5.92 -0.85, 18.75 0" stroke="#2f9e44" stroke-width="1" fill="none"></path></g><g transform="translate(1637.5989144574066 475.74699470709515) rotate(0 55.06996917724621 25)"><text x="55.069969177246094" y="0" font-family="Virgil, Segoe UI Emoji" font-size="20px" fill="#2f9e44" text-anchor="middle" style="white-space: pre;" direction="ltr" dominant-baseline="text-before-edge">PRODUCT </text><text x="55.069969177246094" y="25" font-family="Virgil, Segoe UI Emoji" font-size="20px" fill="#2f9e44" text-anchor="middle" style="white-space: pre;" direction="ltr" dominant-baseline="text-before-edge">SCREEN</text></g><g stroke-linecap="round" transform="translate(1602.1112880021954 555.2998905464826) rotate(0 91.66666666666663 37.5)"><path d="M18.75 0 C48.18 -1.3, 79.05 -1.86, 164.58 0 M18.75 0 C68.73 0.09, 120.74 0.45, 164.58 0 M164.58 0 C176.56 -0.2, 184.27 6.27, 183.33 18.75 M164.58 0 C176.27 0.63, 181.64 6.23, 183.33 18.75 M183.33 18.75 C181.5 28.11, 181.55 37.51, 183.33 56.25 M183.33 18.75 C184.27 29.89, 183.51 39.4, 183.33 56.25 M183.33 56.25 C182.53 67.35, 175.99 75.37, 164.58 75 M183.33 56.25 C181.13 68.74, 178.06 75.82, 164.58 75 M164.58 75 C130.91 73.26, 95.46 73.47, 18.75 75 M164.58 75 C116.52 74.47, 69.05 73.77, 18.75 75 M18.75 75 C4.67 74.3, 1.43 70.11, 0 56.25 M18.75 75 C8.2 73.3, 0.68 68.27, 0 56.25 M0 56.25 C-0.97 48.26, 1.48 41.17, 0 18.75 M0 56.25 C-0.18 46.75, 0.35 35.53, 0 18.75 M0 18.75 C-0.89 7.35, 5.96 -0.74, 18.75 0 M0 18.75 C-1.22 5.24, 6.89 -0.11, 18.75 0" stroke="#2f9e44" stroke-width="1" fill="none"></path></g><g transform="translate(1638.7079854916158 567.7998905464826) rotate(0 55.06996917724598 25)"><text x="55.069969177246094" y="0" font-family="Virgil, Segoe UI Emoji" font-size="20px" fill="#2f9e44" text-anchor="middle" style="white-space: pre;" direction="ltr" dominant-baseline="text-before-edge">PRODUCT </text><text x="55.069969177246094" y="25" font-family="Virgil, Segoe UI Emoji" font-size="20px" fill="#2f9e44" text-anchor="middle" style="white-space: pre;" direction="ltr" dominant-baseline="text-before-edge">SCREEN</text></g><g stroke-linecap="round" transform="translate(1598.784074899567 649.5709284542888) rotate(0 91.6666666666664 37.5)"><path d="M18.75 0 C54.17 0.65, 86.99 -0.3, 164.58 0 M18.75 0 C56.59 -0.05, 95.41 0.06, 164.58 0 M164.58 0 C176.38 0.55, 181.86 6.23, 183.33 18.75 M164.58 0 C175.4 -0.69, 184.79 4.27, 183.33 18.75 M183.33 18.75 C182.44 32.44, 182.41 46.01, 183.33 56.25 M183.33 18.75 C182.94 33.01, 182.79 48.85, 183.33 56.25 M183.33 56.25 C181.42 68.74, 177.94 75.71, 164.58 75 M183.33 56.25 C181.74 67.5, 177.34 74.98, 164.58 75 M164.58 75 C135.28 72.54, 103.59 73.09, 18.75 75 M164.58 75 C114.03 74.23, 65.78 75.26, 18.75 75 M18.75 75 C7.94 73.52, 0.59 68.33, 0 56.25 M18.75 75 C4.16 76.26, -0.77 67.87, 0 56.25 M0 56.25 C-0.8 46.89, -1.28 34.56, 0 18.75 M0 56.25 C-0.69 42.37, -0.39 27.01, 0 18.75 M0 18.75 C-1.06 5.37, 6.81 -0.1, 18.75 0 M0 18.75 C-1.83 5.33, 4.52 1, 18.75 0" stroke="#2f9e44" stroke-width="1" fill="none"></path></g><g transform="translate(1635.3807723889875 662.0709284542888) rotate(0 55.06996917724621 25)"><text x="55.069969177246094" y="0" font-family="Virgil, Segoe UI Emoji" font-size="20px" fill="#2f9e44" text-anchor="middle" style="white-space: pre;" direction="ltr" dominant-baseline="text-before-edge">PRODUCT </text><text x="55.069969177246094" y="25" font-family="Virgil, Segoe UI Emoji" font-size="20px" fill="#2f9e44" text-anchor="middle" style="white-space: pre;" direction="ltr" dominant-baseline="text-before-edge">SCREEN</text></g><g stroke-linecap="round" transform="translate(1596.5659328311483 743.841966362096) rotate(0 91.66666666666663 37.5)"><path d="M18.75 0 C56.7 1.97, 96.13 0.67, 164.58 0 M18.75 0 C60.69 0.26, 102.6 -0.02, 164.58 0 M164.58 0 C175.62 -0.6, 184.6 4.53, 183.33 18.75 M164.58 0 C178.06 -1.92, 185.35 5.58, 183.33 18.75 M183.33 18.75 C185.2 31.61, 183.9 43.6, 183.33 56.25 M183.33 18.75 C182.17 27.38, 183.55 36.37, 183.33 56.25 M183.33 56.25 C181.95 67.66, 177.31 74.98, 164.58 75 M183.33 56.25 C181.14 66.66, 175.14 75.63, 164.58 75 M164.58 75 C130.6 74.35, 94.39 72.92, 18.75 75 M164.58 75 C126.78 75.25, 87.58 75.78, 18.75 75 M18.75 75 C4.43 76.09, -0.67 67.98, 0 56.25 M18.75 75 C6.08 76.94, 0.68 68.2, 0 56.25 M0 56.25 C1.88 43.28, 0.12 26.82, 0 18.75 M0 56.25 C-0.48 42.49, 0.33 29.57, 0 18.75 M0 18.75 C-1.59 5.45, 4.75 0.87, 18.75 0 M0 18.75 C1.32 4.95, 5.24 1.37, 18.75 0" stroke="#2f9e44" stroke-width="1" fill="none"></path></g><g transform="translate(1633.1626303205687 756.341966362096) rotate(0 55.06996917724598 25)"><text x="55.069969177246094" y="0" font-family="Virgil, Segoe UI Emoji" font-size="20px" fill="#2f9e44" text-anchor="middle" style="white-space: pre;" direction="ltr" dominant-baseline="text-before-edge">PRODUCT </text><text x="55.069969177246094" y="25" font-family="Virgil, Segoe UI Emoji" font-size="20px" fill="#2f9e44" text-anchor="middle" style="white-space: pre;" direction="ltr" dominant-baseline="text-before-edge">SCREEN</text></g><g stroke-linecap="round" transform="translate(1594.3477907627291 831.458578064645) rotate(0 91.66666666666663 37.5)"><path d="M18.75 0 C67.95 1.31, 117.57 -0.32, 164.58 0 M18.75 0 C65.79 -0.29, 114.93 -0.85, 164.58 0 M164.58 0 C177.94 -1.67, 185.09 5.67, 183.33 18.75 M164.58 0 C178.05 -0.71, 185.13 8.52, 183.33 18.75 M183.33 18.75 C182.06 28.97, 183.83 39.47, 183.33 56.25 M183.33 18.75 C182.8 29.44, 183.61 41.21, 183.33 56.25 M183.33 56.25 C181.43 66.94, 175.39 75.55, 164.58 75 M183.33 56.25 C181.92 67.26, 176.3 75.95, 164.58 75 M164.58 75 C121.28 75.27, 80.73 75.54, 18.75 75 M164.58 75 C130.71 75.24, 98.32 74.31, 18.75 75 M18.75 75 C6.1 76.69, 0.6 68.27, 0 56.25 M18.75 75 C8.1 73.9, 0.29 70.7, 0 56.25 M0 56.25 C1.11 42.27, -0.73 27.8, 0 18.75 M0 56.25 C-0.9 46.25, -0.86 37.48, 0 18.75 M0 18.75 C1.15 5.12, 5.37 1.19, 18.75 0 M0 18.75 C-0.31 8.19, 5.06 -0.02, 18.75 0" stroke="#2f9e44" stroke-width="1" fill="none"></path></g><g transform="translate(1630.9444882521495 843.958578064645) rotate(0 55.06996917724598 25)"><text x="55.069969177246094" y="0" font-family="Virgil, Segoe UI Emoji" font-size="20px" fill="#2f9e44" text-anchor="middle" style="white-space: pre;" direction="ltr" dominant-baseline="text-before-edge">PRODUCT </text><text x="55.069969177246094" y="25" font-family="Virgil, Segoe UI Emoji" font-size="20px" fill="#2f9e44" text-anchor="middle" style="white-space: pre;" direction="ltr" dominant-baseline="text-before-edge">SCREEN</text></g><g stroke-linecap="round" transform="translate(1592.1296486943104 929.05682907508) rotate(0 91.6666666666664 37.5)"><path d="M18.75 0 C69.85 -0.95, 119.82 -0.95, 164.58 0 M18.75 0 C58.56 0.42, 98.39 0.96, 164.58 0 M164.58 0 C177.93 -0.61, 184.9 8.23, 183.33 18.75 M164.58 0 C177.12 0.78, 182.41 4.64, 183.33 18.75 M183.33 18.75 C183.4 28.79, 184.11 35.75, 183.33 56.25 M183.33 18.75 C182.42 27.05, 182.53 37.44, 183.33 56.25 M183.33 56.25 C182.11 67.46, 176.4 75.82, 164.58 75 M183.33 56.25 C183.15 68.09, 175.26 74.2, 164.58 75 M164.58 75 C108.95 76.83, 55.85 74.42, 18.75 75 M164.58 75 C112.79 75.29, 61.44 74.2, 18.75 75 M18.75 75 C7.86 74.04, 0.25 70.45, 0 56.25 M18.75 75 C7.75 74.94, -1.02 70.02, 0 56.25 M0 56.25 C-0.74 46.1, 0.04 33.23, 0 18.75 M0 56.25 C0.86 45.93, -0.16 37.33, 0 18.75 M0 18.75 C-0.27 7.94, 5.22 -0.02, 18.75 0 M0 18.75 C-0.41 7.75, 7.98 0.47, 18.75 0" stroke="#2f9e44" stroke-width="1" fill="none"></path></g><g transform="translate(1628.7263461837308 941.55682907508) rotate(0 55.06996917724621 25)"><text x="55.069969177246094" y="0" font-family="Virgil, Segoe UI Emoji" font-size="20px" fill="#2f9e44" text-anchor="middle" style="white-space: pre;" direction="ltr" dominant-baseline="text-before-edge">PRODUCT </text><text x="55.069969177246094" y="25" font-family="Virgil, Segoe UI Emoji" font-size="20px" fill="#2f9e44" text-anchor="middle" style="white-space: pre;" direction="ltr" dominant-baseline="text-before-edge">SCREEN</text></g><g stroke-linecap="round"><g transform="translate(575.1218148006153 846.8994833135312) rotate(0 -1.1366698381852984 56.232586388694244)"><path d="M0.12 0.06 C-0.25 18.79, -1.88 93.62, -2.27 112.33 M-0.01 -0.04 C-0.38 18.72, -2.01 93.76, -2.39 112.51" stroke="#2f9e44" stroke-width="1" fill="none"></path></g><g transform="translate(575.1218148006153 846.8994833135312) rotate(0 -1.1366698381852984 56.232586388694244)"><path d="M-12.05 84.11 C-9.63 90.95, -7.45 97.88, -2.39 112.51 M-12.05 84.11 C-9.49 91.39, -7.22 98.75, -2.39 112.51" stroke="#2f9e44" stroke-width="1" fill="none"></path></g><g transform="translate(575.1218148006153 846.8994833135312) rotate(0 -1.1366698381852984 56.232586388694244)"><path d="M8.46 84.54 C5.93 91.3, 3.15 98.13, -2.39 112.51 M8.46 84.54 C5.75 91.71, 2.76 98.96, -2.39 112.51" stroke="#2f9e44" stroke-width="1" fill="none"></path></g></g><mask></mask><g stroke-linecap="round" transform="translate(271.2437168696513 1138.2733546220259) rotate(0 132.26760062319192 101.77889004623569)"><path d="M166.25 25.5 C187.32 39.51, 203.33 53.64, 231.29 76.5 M166.25 25.5 C189.85 45.75, 215.71 64.58, 231.29 76.5 M231.29 76.5 C264.83 101.41, 262.71 101.11, 231.29 127.5 M231.29 76.5 C263.85 103.58, 264.61 103.96, 231.29 127.5 M231.29 127.5 C217.4 139.31, 204.07 149.25, 166.25 178.06 M231.29 127.5 C214.77 141.1, 195.62 156.23, 166.25 178.06 M166.25 178.06 C131.36 203.63, 133.81 202.87, 99.75 178.06 M166.25 178.06 C131.83 205.12, 131.7 203.55, 99.75 178.06 M99.75 178.06 C82.9 165.95, 63.58 150.97, 33.25 127.5 M99.75 178.06 C79.78 164.19, 62.24 150.88, 33.25 127.5 M33.25 127.5 C1.78 103.58, -0.52 102.8, 33.25 76.5 M33.25 127.5 C-1.44 103.92, 0.42 103.56, 33.25 76.5 M33.25 76.5 C57.19 59, 79.76 41.34, 99.75 25.5 M33.25 76.5 C58.03 58.01, 84.76 37.29, 99.75 25.5 M99.75 25.5 C134.4 0.87, 134.36 -1.13, 166.25 25.5 M99.75 25.5 C132.8 0.38, 134.44 -1.23, 166.25 25.5" stroke="#2f9e44" stroke-width="1" fill="none"></path></g><g transform="translate(342.54754586777074 1215.1627996451437) rotate(0 60.82997131347656 25)"><text x="60.82997131347656" y="0" font-family="Virgil, Segoe UI Emoji" font-size="20px" fill="#2f9e44" text-anchor="middle" style="white-space: pre;" direction="ltr" dominant-baseline="text-before-edge">SUBSCRIBE</text><text x="60.82997131347656" y="25" font-family="Virgil, Segoe UI Emoji" font-size="20px" fill="#2f9e44" text-anchor="middle" style="white-space: pre;" direction="ltr" dominant-baseline="text-before-edge">NEWSLATER</text></g><g stroke-linecap="round"><g transform="translate(258.59838477904543 1239.189693599726) rotate(0 -28.56778287522519 1.6535936021119824)"><path d="M0.14 -0.06 C-9.38 0.52, -47.6 2.92, -57.19 3.53 M0.02 -0.22 C-9.51 0.3, -47.75 2.69, -57.27 3.28" stroke="#2f9e44" stroke-width="1" fill="none"></path></g><g transform="translate(258.59838477904543 1239.189693599726) rotate(0 -28.56778287522519 1.6535936021119824)"><path d="M-30.97 -8.19 C-37.59 -5.15, -43.92 -2.7, -57.27 3.28 M-30.97 -8.19 C-40.29 -4.25, -49.78 -0.09, -57.27 3.28" stroke="#2f9e44" stroke-width="1" fill="none"></path></g><g transform="translate(258.59838477904543 1239.189693599726) rotate(0 -28.56778287522519 1.6535936021119824)"><path d="M-29.75 11.4 C-36.69 9.59, -43.33 7.17, -57.27 3.28 M-29.75 11.4 C-39.53 8.38, -49.45 5.57, -57.27 3.28" stroke="#2f9e44" stroke-width="1" fill="none"></path></g></g><mask></mask><g stroke-linecap="round" transform="translate(10 1200.6258926137818) rotate(0 91.66666666666652 37.5)"><path d="M18.75 0 C70.78 0.85, 124.94 2.16, 164.58 0 M18.75 0 C62.19 -0.48, 104.01 -1.07, 164.58 0 M164.58 0 C178.54 -0.14, 182.11 4.97, 183.33 18.75 M164.58 0 C177.53 -0.35, 182.68 4.03, 183.33 18.75 M183.33 18.75 C184.89 26.7, 185.07 40.3, 183.33 56.25 M183.33 18.75 C182.72 33.63, 182.86 46.45, 183.33 56.25 M183.33 56.25 C182.31 68.03, 177 73.55, 164.58 75 M183.33 56.25 C183.84 70.34, 175.46 73.8, 164.58 75 M164.58 75 C108.01 75.6, 47.19 75.66, 18.75 75 M164.58 75 C128.89 74.12, 93.92 74.36, 18.75 75 M18.75 75 C5.01 73.75, 1.61 67.56, 0 56.25 M18.75 75 C4.87 74.22, -1.85 69.08, 0 56.25 M0 56.25 C-0.94 41.31, -0.26 27.78, 0 18.75 M0 56.25 C-0.3 48.26, -0.22 39.12, 0 18.75 M0 18.75 C-1.81 7.94, 7.48 1.22, 18.75 0 M0 18.75 C1.39 5.35, 7.78 1.52, 18.75 0" stroke="#2f9e44" stroke-width="1" fill="none"></path></g><g transform="translate(30.586702982584484 1225.6258926137818) rotate(0 71.07996368408203 12.5)"><text x="71.07996368408203" y="0" font-family="Virgil, Segoe UI Emoji" font-size="20px" fill="#2f9e44" text-anchor="middle" style="white-space: pre;" direction="ltr" dominant-baseline="text-before-edge">INPUT EMAIL</text></g><g stroke-linecap="round" transform="translate(2123.8267728921855 470.7702913616238) rotate(0 109.42010555493266 95.00926187786251)"><path d="M137.5 24 C153.4 39.18, 167.24 50.16, 191.34 72 M137.5 24 C156.75 41.81, 174.96 58.95, 191.34 72 M191.34 72 C219.1 96.17, 217.04 94.81, 191.34 120 M191.34 72 C217.51 97.64, 218.26 97.45, 191.34 120 M191.34 120 C172.17 136.01, 155.08 151.27, 137.5 166.02 M191.34 120 C170.17 137.2, 150.64 153.58, 137.5 166.02 M137.5 166.02 C109.49 190.39, 109.41 191.34, 82.5 166.02 M137.5 166.02 C111.88 191.83, 112.05 188.01, 82.5 166.02 M82.5 166.02 C62.61 147.94, 43.11 132.82, 27.5 120 M82.5 166.02 C72.15 157.52, 60.31 147.08, 27.5 120 M27.5 120 C-0.47 97.11, 0.35 96, 27.5 72 M27.5 120 C0.79 98.28, -0.78 97.39, 27.5 72 M27.5 72 C42.34 59.36, 59.64 44.02, 82.5 24 M27.5 72 C49.66 52.02, 69.78 34.42, 82.5 24 M82.5 24 C110.8 1.55, 109.16 1, 137.5 24 M82.5 24 C111.68 0.21, 108.3 -0.73, 137.5 24" stroke="#2f9e44" stroke-width="1" fill="none"></path></g><g transform="translate(2202.576849473363 528.2749223005551) rotate(0 30.459976196289062 37.5)"><text x="30.459976196289062" y="0" font-family="Virgil, Segoe UI Emoji" font-size="20px" fill="#2f9e44" text-anchor="middle" style="white-space: pre;" direction="ltr" dominant-baseline="text-before-edge">ADD </text><text x="30.459976196289062" y="25" font-family="Virgil, Segoe UI Emoji" font-size="20px" fill="#2f9e44" text-anchor="middle" style="white-space: pre;" direction="ltr" dominant-baseline="text-before-edge">SHOP </text><text x="30.459976196289062" y="50" font-family="Virgil, Segoe UI Emoji" font-size="20px" fill="#2f9e44" text-anchor="middle" style="white-space: pre;" direction="ltr" dominant-baseline="text-before-edge">CART</text></g><g stroke-linecap="round"><g transform="translate(1864.5474213919906 500.90365237644505) rotate(0 1.4764633635809332 234.53885172618595)"><path d="M-0.03 0.03 C0.45 78.18, 2.52 390.83, 2.99 469 M0.23 -0.08 C0.69 78.15, 2.46 390.95, 2.94 469.16" stroke="#2f9e44" stroke-width="1" fill="none"></path></g></g><mask></mask><g stroke-linecap="round"><g transform="translate(1786.440975843716 498.97523754869485) rotate(0 41.71327822221883 -0.24223789220263825)"><path d="M-0.07 -0.1 C13.86 -0.16, 69.56 -0.34, 83.5 -0.42 M0.16 0.17 C14.08 0.07, 69.51 -0.55, 83.39 -0.65" stroke="#2f9e44" stroke-width="1" fill="none"></path></g><g transform="translate(1786.440975843716 498.97523754869485) rotate(0 41.71327822221883 -0.24223789220263825)"><path d="M55.3 9.88 C61.89 7.39, 68.96 4.9, 83.39 -0.65 M55.3 9.88 C61.92 7.47, 68.53 4.88, 83.39 -0.65" stroke="#2f9e44" stroke-width="1" fill="none"></path></g><g transform="translate(1786.440975843716 498.97523754869485) rotate(0 41.71327822221883 -0.24223789220263825)"><path d="M55.1 -10.64 C61.72 -8.18, 68.85 -5.72, 83.39 -0.65 M55.1 -10.64 C61.77 -8.23, 68.43 -6, 83.39 -0.65" stroke="#2f9e44" stroke-width="1" fill="none"></path></g></g><mask></mask><g stroke-linecap="round"><g transform="translate(1788.1333828858092 590.3652178217337) rotate(0 41.735453395506056 -0.26577565244349444)"><path d="M-0.03 0.14 C13.91 0.06, 69.6 -0.32, 83.51 -0.43 M0.22 0.08 C14.15 -0.05, 69.56 -0.6, 83.4 -0.67" stroke="#2f9e44" stroke-width="1" fill="none"></path></g><g transform="translate(1788.1333828858092 590.3652178217337) rotate(0 41.735453395506056 -0.26577565244349444)"><path d="M55.29 9.81 C61.25 7.75, 66.75 5.42, 83.4 -0.67 M55.29 9.81 C63.35 6.73, 71.43 3.7, 83.4 -0.67" stroke="#2f9e44" stroke-width="1" fill="none"></path></g><g transform="translate(1788.1333828858092 590.3652178217337) rotate(0 41.735453395506056 -0.26577565244349444)"><path d="M55.13 -10.71 C61.13 -8.61, 66.67 -6.79, 83.4 -0.67 M55.13 -10.71 C63.24 -7.91, 71.37 -5.07, 83.4 -0.67" stroke="#2f9e44" stroke-width="1" fill="none"></path></g></g><mask></mask><g stroke-linecap="round"><g transform="translate(1786.4409758437155 681.7551980947721) rotate(0 41.73361995073674 -0.1864711777955108)"><path d="M-0.08 -0.1 C13.84 -0.2, 69.61 -0.47, 83.55 -0.54 M0.14 0.16 C14.05 0.08, 69.57 -0.3, 83.47 -0.39" stroke="#2f9e44" stroke-width="1" fill="none"></path></g><g transform="translate(1786.4409758437155 681.7551980947721) rotate(0 41.73361995073674 -0.1864711777955108)"><path d="M55.35 10.06 C64.25 6.84, 73.41 3.5, 83.47 -0.39 M55.35 10.06 C63.55 6.95, 71.62 4.06, 83.47 -0.39" stroke="#2f9e44" stroke-width="1" fill="none"></path></g><g transform="translate(1786.4409758437155 681.7551980947721) rotate(0 41.73361995073674 -0.1864711777955108)"><path d="M55.21 -10.46 C64.17 -7.04, 73.38 -3.73, 83.47 -0.39 M55.21 -10.46 C63.47 -7.67, 71.58 -4.66, 83.47 -0.39" stroke="#2f9e44" stroke-width="1" fill="none"></path></g></g><mask></mask><g stroke-linecap="round"><g transform="translate(1784.7485688016218 778.22239949409) rotate(0 41.757621715765026 -0.2896117686291291)"><path d="M0.01 -0.02 C13.91 -0.11, 69.46 -0.47, 83.39 -0.56 M-0.16 -0.16 C13.79 -0.22, 69.73 -0.37, 83.67 -0.42" stroke="#2f9e44" stroke-width="1" fill="none"></path></g><g transform="translate(1784.7485688016218 778.22239949409) rotate(0 41.757621715765026 -0.2896117686291291)"><path d="M55.51 9.93 C63.68 6.74, 71.74 4.08, 83.67 -0.42 M55.51 9.93 C62.07 7.54, 68.8 5.12, 83.67 -0.42" stroke="#2f9e44" stroke-width="1" fill="none"></path></g><g transform="translate(1784.7485688016218 778.22239949409) rotate(0 41.757621715765026 -0.2896117686291291)"><path d="M55.45 -10.59 C63.63 -7.81, 71.71 -4.49, 83.67 -0.42 M55.45 -10.59 C62.02 -8.18, 68.77 -5.79, 83.67 -0.42" stroke="#2f9e44" stroke-width="1" fill="none"></path></g></g><mask></mask><g stroke-linecap="round"><g transform="translate(1779.6713476753425 872.9971938513154) rotate(0 41.72195034636911 -0.2901744150461809)"><path d="M-0.02 -0.14 C13.85 -0.22, 69.45 -0.38, 83.38 -0.44 M-0.21 0.11 C13.69 -0.02, 69.71 -0.61, 83.66 -0.69" stroke="#2f9e44" stroke-width="1" fill="none"></path></g><g transform="translate(1779.6713476753425 872.9971938513154) rotate(0 41.72195034636911 -0.2901744150461809)"><path d="M55.55 9.81 C66.31 5.5, 77.66 1.72, 83.66 -0.69 M55.55 9.81 C63.43 6.69, 71.55 3.81, 83.66 -0.69" stroke="#2f9e44" stroke-width="1" fill="none"></path></g><g transform="translate(1779.6713476753425 872.9971938513154) rotate(0 41.72195034636911 -0.2901744150461809)"><path d="M55.38 -10.71 C66.21 -6.96, 77.63 -2.69, 83.66 -0.69 M55.38 -10.71 C63.32 -8.03, 71.48 -5.1, 83.66 -0.69" stroke="#2f9e44" stroke-width="1" fill="none"></path></g></g><mask></mask><g stroke-linecap="round"><g transform="translate(1783.0561617595295 961.0023600401669) rotate(0 41.711744742392284 -0.26568902798203453)"><path d="M0.08 0.02 C14.01 -0.09, 69.58 -0.46, 83.47 -0.55 M-0.05 -0.09 C13.86 -0.12, 69.46 -0.35, 83.36 -0.41" stroke="#2f9e44" stroke-width="1" fill="none"></path></g><g transform="translate(1783.0561617595295 961.0023600401669) rotate(0 41.711744742392284 -0.26568902798203453)"><path d="M55.21 9.97 C62.59 7.23, 69.73 4.49, 83.36 -0.41 M55.21 9.97 C61.75 7.59, 68.16 5.19, 83.36 -0.41" stroke="#2f9e44" stroke-width="1" fill="none"></path></g><g transform="translate(1783.0561617595295 961.0023600401669) rotate(0 41.711744742392284 -0.26568902798203453)"><path d="M55.12 -10.55 C62.55 -7.94, 69.71 -5.32, 83.36 -0.41 M55.12 -10.55 C61.69 -8.18, 68.12 -5.85, 83.36 -0.41" stroke="#2f9e44" stroke-width="1" fill="none"></path></g></g><mask></mask><g stroke-linecap="round"><g transform="translate(1874.210002980035 865.8395381143957) rotate(0 125.42020378243956 -0.7890565721500025)"><path d="M-0.1 0.15 C41.73 -0.13, 209.12 -1.43, 250.94 -1.73 M0.12 0.1 C41.94 -0.17, 209.1 -1.34, 250.87 -1.6" stroke="#2f9e44" stroke-width="1" fill="none"></path></g><g transform="translate(1874.210002980035 865.8395381143957) rotate(0 125.42020378243956 -0.7890565721500025)"><path d="M222.75 8.85 C230.97 6.11, 238.37 2.96, 250.87 -1.6 M222.75 8.85 C230.66 6, 238.76 3.01, 250.87 -1.6" stroke="#2f9e44" stroke-width="1" fill="none"></path></g><g transform="translate(1874.210002980035 865.8395381143957) rotate(0 125.42020378243956 -0.7890565721500025)"><path d="M222.61 -11.67 C230.87 -8.62, 238.3 -5.99, 250.87 -1.6 M222.61 -11.67 C230.56 -8.72, 238.7 -5.89, 250.87 -1.6" stroke="#2f9e44" stroke-width="1" fill="none"></path></g></g><mask></mask><g stroke-linecap="round" transform="translate(2136.5198257078855 766.9415237279518) rotate(0 115.34353020225922 95.00926187786251)"><path d="M145 24 C158.31 34.25, 169.63 45.6, 201.69 72 M145 24 C166.95 42.41, 188.27 60.31, 201.69 72 M201.69 72 C230.86 94.33, 231.97 95.7, 201.69 120 M201.69 72 C231.82 96.18, 229.51 95.7, 201.69 120 M201.69 120 C185.43 133.89, 169.19 145.72, 145 166.02 M201.69 120 C186.14 131.19, 170.94 143.96, 145 166.02 M145 166.02 C114.69 190.57, 116.92 191.02, 87 166.02 M145 166.02 C115.68 192.01, 118.09 188.37, 87 166.02 M87 166.02 C64.15 146.81, 42.02 129.69, 29 120 M87 166.02 C67.05 150.41, 49.11 134.69, 29 120 M29 120 C-1.78 94.04, -1.74 96.37, 29 72 M29 120 C-0.36 93.99, 1.56 96.23, 29 72 M29 72 C50.45 53.07, 71.86 36.48, 87 24 M29 72 C45.72 58.45, 60.37 44.89, 87 24 M87 24 C116.1 1.21, 115.75 -0.61, 145 24 M87 24 C116.94 0.16, 115.34 1.73, 145 24" stroke="#2f9e44" stroke-width="1" fill="none"></path></g><g transform="translate(2199.951615833429 836.9461546668831) rotate(0 51.73997497558594 25)"><text x="51.73997497558594" y="0" font-family="Virgil, Segoe UI Emoji" font-size="20px" fill="#2f9e44" text-anchor="middle" style="white-space: pre;" direction="ltr" dominant-baseline="text-before-edge">ADD </text><text x="51.73997497558594" y="25" font-family="Virgil, Segoe UI Emoji" font-size="20px" fill="#2f9e44" text-anchor="middle" style="white-space: pre;" direction="ltr" dominant-baseline="text-before-edge">FAVORITE</text></g><g stroke-linecap="round"><g transform="translate(1870.0562029055995 571.5675742338619) rotate(0 125.42531127483949 -0.7350700146829467)"><path d="M-0.12 -0.09 C41.72 -0.34, 209.17 -1.41, 250.97 -1.66 M0.09 0.19 C41.93 -0.03, 209.1 -1.16, 250.92 -1.49" stroke="#2f9e44" stroke-width="1" fill="none"></path></g><g transform="translate(1870.0562029055995 571.5675742338619) rotate(0 125.42531127483949 -0.7350700146829467)"><path d="M222.81 8.97 C229.02 6.89, 235.46 4.03, 250.92 -1.49 M222.81 8.97 C232.23 5.42, 241.89 1.81, 250.92 -1.49" stroke="#2f9e44" stroke-width="1" fill="none"></path></g><g transform="translate(1870.0562029055995 571.5675742338619) rotate(0 125.42531127483949 -0.7350700146829467)"><path d="M222.66 -11.55 C228.87 -8.98, 235.35 -7.18, 250.92 -1.49 M222.66 -11.55 C232.14 -8.19, 241.85 -4.89, 250.92 -1.49" stroke="#2f9e44" stroke-width="1" fill="none"></path></g></g><mask></mask><g stroke-linecap="round" transform="translate(1292.854915224374 1176.5040279145308) rotate(0 115.3435302022591 95.00926187786251)"><path d="M145 24 C156.86 34.12, 171.69 49.06, 201.69 72 M145 24 C166.53 42.04, 189.37 62.21, 201.69 72 M201.69 72 C232.08 94.8, 229.86 96.76, 201.69 120 M201.69 72 C232.84 94.84, 231.86 97.73, 201.69 120 M201.69 120 C192.23 127.13, 180.62 139.26, 145 166.02 M201.69 120 C178.46 138.08, 157.48 156.29, 145 166.02 M145 166.02 C117.23 189.48, 115.35 189.55, 87 166.02 M145 166.02 C113.87 189.13, 115.19 191.43, 87 166.02 M87 166.02 C63.08 150.03, 40.3 129.45, 29 120 M87 166.02 C67.23 149.36, 45.96 133.57, 29 120 M29 120 C-1.14 97.95, 1.43 96.82, 29 72 M29 120 C1.9 96.43, 0.52 94.68, 29 72 M29 72 C42.9 59.91, 60.26 46.89, 87 24 M29 72 C51.11 54.72, 70.62 35.58, 87 24 M87 24 C115.93 0.79, 114.31 -1.79, 145 24 M87 24 C117.01 0.83, 117.14 -1.17, 145 24" stroke="#2f9e44" stroke-width="1" fill="none"></path></g><g transform="translate(1356.2867053499176 1246.508658853462) rotate(0 51.73997497558594 25)"><text x="51.73997497558594" y="0" font-family="Virgil, Segoe UI Emoji" font-size="20px" fill="#2f9e44" text-anchor="middle" style="white-space: pre;" direction="ltr" dominant-baseline="text-before-edge">ADD </text><text x="51.73997497558594" y="25" font-family="Virgil, Segoe UI Emoji" font-size="20px" fill="#2f9e44" text-anchor="middle" style="white-space: pre;" direction="ltr" dominant-baseline="text-before-edge">FAVORITE</text></g><g stroke-linecap="round"><g transform="translate(1406.3366733720345 1013.285812220214) rotate(0 1.9003373272022372 82.95424064049598)"><path d="M0.12 -0.11 C0.75 27.56, 3.2 138.17, 3.81 165.87 M-0.01 0.16 C0.6 27.86, 3.11 138.42, 3.72 166.02" stroke="#2f9e44" stroke-width="1" fill="none"></path></g><g transform="translate(1406.3366733720345 1013.285812220214) rotate(0 1.9003373272022372 82.95424064049598)"><path d="M-7.17 138.07 C-3.98 147.01, -0.48 155.77, 3.72 166.02 M-7.17 138.07 C-3.41 147.92, 0.71 158.06, 3.72 166.02" stroke="#2f9e44" stroke-width="1" fill="none"></path></g><g transform="translate(1406.3366733720345 1013.285812220214) rotate(0 1.9003373272022372 82.95424064049598)"><path d="M13.34 137.61 C10.04 146.72, 7.06 155.62, 3.72 166.02 M13.34 137.61 C9.8 147.59, 6.6 157.9, 3.72 166.02" stroke="#2f9e44" stroke-width="1" fill="none"></path></g></g><mask></mask><g stroke-linecap="round"><g transform="translate(572.8547972737013 646.994005571426) rotate(0 -0.3073708937420747 -83.79738186301483)"><path d="M-0.03 -0.04 C-0.14 -27.98, -0.59 -139.67, -0.7 -167.55 M0.22 -0.19 C0.1 -28.12, -0.66 -139.51, -0.83 -167.4" stroke="#2f9e44" stroke-width="1" fill="none"></path></g><g transform="translate(572.8547972737013 646.994005571426) rotate(0 -0.3073708937420747 -83.79738186301483)"><path d="M9.61 -139.28 C6.99 -146.1, 4.41 -152.91, -0.83 -167.4 M9.61 -139.28 C5.6 -150.44, 1.32 -161.67, -0.83 -167.4" stroke="#2f9e44" stroke-width="1" fill="none"></path></g><g transform="translate(572.8547972737013 646.994005571426) rotate(0 -0.3073708937420747 -83.79738186301483)"><path d="M-10.91 -139.14 C-8.59 -145.99, -6.23 -152.84, -0.83 -167.4 M-10.91 -139.14 C-6.76 -150.34, -2.88 -161.62, -0.83 -167.4" stroke="#2f9e44" stroke-width="1" fill="none"></path></g></g><mask></mask><g stroke-linecap="round"><g transform="translate(698.6854462988433 471.9152219871976) rotate(0 -121.82188709605418 0.9169299416280978)"><path d="M-0.02 0.11 C-40.58 0.37, -202.93 1.4, -243.5 1.66 M-0.21 0.03 C-40.79 0.3, -203.06 1.51, -243.62 1.8" stroke="#2f9e44" stroke-width="1" fill="none"></path></g></g><mask></mask><g stroke-linecap="round"><g transform="translate(695.2882993608278 474.5755299647258) rotate(0 0.11347779911830003 -74.61982391672899)"><path d="M0.08 -0.04 C0.12 -24.92, 0.22 -124.33, 0.28 -149.2 M-0.06 -0.19 C-0.04 -25.05, 0.07 -124.19, 0.16 -149.01" stroke="#2f9e44" stroke-width="1" fill="none"></path></g><g transform="translate(695.2882993608278 474.5755299647258) rotate(0 0.11347779911830003 -74.61982391672899)"><path d="M10.36 -120.8 C6.88 -130.2, 3.56 -139.23, 0.16 -149.01 M10.36 -120.8 C7.92 -127.76, 5.37 -134.34, 0.16 -149.01" stroke="#2f9e44" stroke-width="1" fill="none"></path></g><g transform="translate(695.2882993608278 474.5755299647258) rotate(0 0.11347779911830003 -74.61982391672899)"><path d="M-10.16 -120.85 C-6.84 -130.25, -3.35 -139.26, 0.16 -149.01 M-10.16 -120.85 C-7.64 -127.76, -5.23 -134.34, 0.16 -149.01" stroke="#2f9e44" stroke-width="1" fill="none"></path></g></g><mask></mask><g stroke-linecap="round"><g transform="translate(459.47978215514865 474.293560787371) rotate(0 -0.2059032057899799 -72.98509357062272)"><path d="M-0.01 0.04 C-0.06 -24.3, -0.23 -121.65, -0.29 -146.01 M-0.19 -0.06 C-0.27 -24.38, -0.41 -121.49, -0.4 -145.83" stroke="#2f9e44" stroke-width="1" fill="none"></path></g><g transform="translate(459.47978215514865 474.293560787371) rotate(0 -0.2059032057899799 -72.98509357062272)"><path d="M9.88 -117.64 C6.63 -126.7, 3.24 -136.02, -0.4 -145.83 M9.88 -117.64 C7.68 -123.52, 5.5 -129.48, -0.4 -145.83" stroke="#2f9e44" stroke-width="1" fill="none"></path></g><g transform="translate(459.47978215514865 474.293560787371) rotate(0 -0.2059032057899799 -72.98509357062272)"><path d="M-10.64 -117.63 C-7.27 -126.69, -4.05 -136.01, -0.4 -145.83 M-10.64 -117.63 C-8.5 -123.49, -6.34 -129.45, -0.4 -145.83" stroke="#2f9e44" stroke-width="1" fill="none"></path></g></g><mask></mask><g stroke-linecap="round" transform="translate(338.8438886124211 141.35969764418473) rotate(0 115.3435302022591 95.00926187786251)"><path d="M145 24 C166.31 43.03, 183.78 57.71, 201.69 72 M145 24 C159 35.85, 171.86 45.55, 201.69 72 M201.69 72 C230.86 95.42, 232.66 97.49, 201.69 120 M201.69 72 C230.92 95.53, 229.79 96.2, 201.69 120 M201.69 120 C189.72 131.84, 176.24 141.1, 145 166.02 M201.69 120 C189.58 130.98, 175.41 141.39, 145 166.02 M145 166.02 C116.7 191.15, 114.45 190.49, 87 166.02 M145 166.02 C115.99 189.26, 116.36 188.11, 87 166.02 M87 166.02 C65.29 148.69, 47.04 133.54, 29 120 M87 166.02 C73.51 155.49, 62.65 146.59, 29 120 M29 120 C-0.31 96.59, 0.7 95.92, 29 72 M29 120 C-0.48 94.26, -1.04 95.93, 29 72 M29 72 C46.2 55.72, 66.13 42.14, 87 24 M29 72 C40.62 61.13, 52.61 52.28, 87 24 M87 24 C116.54 0.32, 115.86 0.94, 145 24 M87 24 C113.95 -1.9, 115.17 0.14, 145 24" stroke="#2f9e44" stroke-width="1" fill="none"></path></g><g transform="translate(402.27567873796477 211.36432858311605) rotate(0 51.73997497558594 25)"><text x="51.73997497558594" y="0" font-family="Virgil, Segoe UI Emoji" font-size="20px" fill="#2f9e44" text-anchor="middle" style="white-space: pre;" direction="ltr" dominant-baseline="text-before-edge">VIEW </text><text x="51.73997497558594" y="25" font-family="Virgil, Segoe UI Emoji" font-size="20px" fill="#2f9e44" text-anchor="middle" style="white-space: pre;" direction="ltr" dominant-baseline="text-before-edge">FAVORITE</text></g><g stroke-linecap="round" transform="translate(578.1819515480518 143.2442493208432) rotate(0 115.3435302022591 95.00926187786251)"><path d="M145 24 C166.1 38.22, 184.01 58.12, 201.69 72 M145 24 C156.57 34.39, 169.81 45.91, 201.69 72 M201.69 72 C230.96 94.61, 230.03 97.49, 201.69 120 M201.69 72 C231.58 95.77, 231.35 96.87, 201.69 120 M201.69 120 C184.6 133.91, 170.73 146.73, 145 166.02 M201.69 120 C182.42 134.45, 163.89 150.2, 145 166.02 M145 166.02 C114.76 188.84, 116.63 191.17, 87 166.02 M145 166.02 C115.46 190.85, 115.6 190.91, 87 166.02 M87 166.02 C67.57 148.61, 48.86 134.43, 29 120 M87 166.02 C75.86 155.37, 63.35 146.24, 29 120 M29 120 C1.08 97.94, 1.52 97.68, 29 72 M29 120 C-0.11 94.06, 1.65 96.28, 29 72 M29 72 C50.67 51.39, 74.54 34.69, 87 24 M29 72 C41.04 62.05, 52.5 52.04, 87 24 M87 24 C115.45 0.41, 114.83 1.63, 145 24 M87 24 C117.03 1.87, 116.89 -1.08, 145 24" stroke="#2f9e44" stroke-width="1" fill="none"></path></g><g transform="translate(665.5337322131462 213.24888025977452) rotate(0 27.819984436035213 25)"><text x="27.819984436035156" y="0" font-family="Virgil, Segoe UI Emoji" font-size="20px" fill="#2f9e44" text-anchor="middle" style="white-space: pre;" direction="ltr" dominant-baseline="text-before-edge">VIEW</text><text x="27.819984436035156" y="25" font-family="Virgil, Segoe UI Emoji" font-size="20px" fill="#2f9e44" text-anchor="middle" style="white-space: pre;" direction="ltr" dominant-baseline="text-before-edge">CART</text></g><g stroke-linecap="round"><g transform="translate(741.0847404830456 959.2902446823487) rotate(0 -167.5844626392652 0.5764054392848266)"><path d="M-0.12 0.07 C-56 0.29, -279.31 0.99, -335.14 1.17 M0.09 -0.02 C-55.82 0.17, -279.38 0.81, -335.26 0.97" stroke="#2f9e44" stroke-width="1" fill="none"></path></g></g><mask></mask><g stroke-linecap="round"><g transform="translate(409.6978736848123 961.5965100198405) rotate(0 -0.08971186953510824 90.2000256250019)"><path d="M0.1 -0.02 C0.09 30.06, -0.13 150.32, -0.2 180.36 M-0.02 -0.16 C-0.04 29.95, -0.21 150.47, -0.28 180.56" stroke="#2f9e44" stroke-width="1" fill="none"></path></g><g transform="translate(409.6978736848123 961.5965100198405) rotate(0 -0.08971186953510824 90.2000256250019)"><path d="M-10.49 152.35 C-8.14 159.13, -5.67 165.52, -0.28 180.56 M-10.49 152.35 C-8.15 158.7, -5.87 165.28, -0.28 180.56" stroke="#2f9e44" stroke-width="1" fill="none"></path></g><g transform="translate(409.6978736848123 961.5965100198405) rotate(0 -0.08971186953510824 90.2000256250019)"><path d="M10.03 152.38 C7.53 159.18, 5.15 165.56, -0.28 180.56 M10.03 152.38 C7.71 158.74, 5.34 165.31, -0.28 180.56" stroke="#2f9e44" stroke-width="1" fill="none"></path></g></g><mask></mask><g stroke-linecap="round" transform="translate(621.9154616582607 1154.4663560206836) rotate(0 123.26760062319192 89.77889004623569)"><path d="M155 22.5 C170.08 31.79, 186.14 42.99, 215.54 67.5 M155 22.5 C177.39 39.39, 202.12 56.16, 215.54 67.5 M215.54 67.5 C245.31 91.3, 246.33 88.09, 215.54 112.5 M215.54 67.5 C247.88 90.77, 248.74 89.3, 215.54 112.5 M215.54 112.5 C199.29 124.69, 181.92 137.63, 155 157.06 M215.54 112.5 C191.68 128.74, 170.14 147.11, 155 157.06 M155 157.06 C123.64 177.94, 122.51 179.45, 93 157.06 M155 157.06 C124.57 178.32, 123.25 180.66, 93 157.06 M93 157.06 C70.61 140.39, 48.84 126.98, 31 112.5 M93 157.06 C68.44 139.05, 46.15 123.42, 31 112.5 M31 112.5 C0.51 89.66, -0.94 88.01, 31 67.5 M31 112.5 C-1.33 91.79, -2.05 90.02, 31 67.5 M31 67.5 C48.31 55.11, 64.42 44.79, 93 22.5 M31 67.5 C53.77 50.53, 75.91 34.51, 93 22.5 M93 22.5 C123.74 -0.2, 124.85 -0.84, 155 22.5 M93 22.5 C123.92 1.23, 123.87 -1.74, 155 22.5" stroke="#2f9e44" stroke-width="1" fill="none"></path></g><g transform="translate(698.229285163216 1206.8558010438014) rotate(0 46.819976806640625 37.5)"><text x="46.819976806640625" y="0" font-family="Virgil, Segoe UI Emoji" font-size="20px" fill="#2f9e44" text-anchor="middle" style="white-space: pre;" direction="ltr" dominant-baseline="text-before-edge">FOOTER </text><text x="46.819976806640625" y="25" font-family="Virgil, Segoe UI Emoji" font-size="20px" fill="#2f9e44" text-anchor="middle" style="white-space: pre;" direction="ltr" dominant-baseline="text-before-edge">SOCIAL </text><text x="46.819976806640625" y="50" font-family="Virgil, Segoe UI Emoji" font-size="20px" fill="#2f9e44" text-anchor="middle" style="white-space: pre;" direction="ltr" dominant-baseline="text-before-edge">MEDIA</text></g><g stroke-linecap="round" transform="translate(948.6717447886094 1210.8188940124396) rotate(0 91.66666666666652 37.5)"><path d="M18.75 0 C51.79 -1.47, 82.37 1.86, 164.58 0 M18.75 0 C59.44 -1.9, 100.91 -0.61, 164.58 0 M164.58 0 C179 -0.61, 182.76 6.05, 183.33 18.75 M164.58 0 C175.73 0.25, 183.86 5.42, 183.33 18.75 M183.33 18.75 C184.52 30.92, 182.06 47.05, 183.33 56.25 M183.33 18.75 C182.52 33.13, 183.51 47.08, 183.33 56.25 M183.33 56.25 C182.68 69.71, 178.03 76.89, 164.58 75 M183.33 56.25 C181.88 68.25, 176.16 74.22, 164.58 75 M164.58 75 C111.12 75.07, 56.92 77.61, 18.75 75 M164.58 75 C114.53 73.76, 64.84 75.53, 18.75 75 M18.75 75 C4.47 75.01, -0.49 67.41, 0 56.25 M18.75 75 C4.44 74.93, -0.55 67.55, 0 56.25 M0 56.25 C1.44 43.89, -1.06 29.77, 0 18.75 M0 56.25 C0.48 46.13, 0.01 37.38, 0 18.75 M0 18.75 C-0.11 4.74, 7.7 -0.82, 18.75 0 M0 18.75 C-1.72 7.66, 5.8 -1.62, 18.75 0" stroke="#2f9e44" stroke-width="1" fill="none"></path></g><g transform="translate(963.3484517384791 1235.8188940124396) rotate(0 76.98995971679688 12.5)"><text x="76.98995971679688" y="0" font-family="Virgil, Segoe UI Emoji" font-size="20px" fill="#2f9e44" text-anchor="middle" style="white-space: pre;" direction="ltr" dominant-baseline="text-before-edge">SOCIAL MEDIA</text></g><g stroke-linecap="round"><g transform="translate(738.3696184734217 959.789511418498) rotate(0 1.6194300968272728 90.45667844969114)"><path d="M0.15 -0.03 C0.65 30.15, 2.43 150.95, 2.9 181.09 M0.04 -0.18 C0.6 29.95, 2.73 150.69, 3.2 180.87" stroke="#2f9e44" stroke-width="1" fill="none"></path></g><g transform="translate(738.3696184734217 959.789511418498) rotate(0 1.6194300968272728 90.45667844969114)"><path d="M-7.53 152.86 C-5.11 159.12, -2.38 165.73, 3.2 180.87 M-7.53 152.86 C-5.17 158.54, -3.16 164.3, 3.2 180.87" stroke="#2f9e44" stroke-width="1" fill="none"></path></g><g transform="translate(738.3696184734217 959.789511418498) rotate(0 1.6194300968272728 90.45667844969114)"><path d="M12.98 152.52 C10.67 158.89, 8.67 165.58, 3.2 180.87 M12.98 152.52 C11.15 158.27, 8.96 164.1, 3.2 180.87" stroke="#2f9e44" stroke-width="1" fill="none"></path></g></g><mask></mask><g stroke-linecap="round"><g transform="translate(871.8091105651486 1241.7717282015356) rotate(0 35.595252368559954 0.05175881831212337)"><path d="M0.07 -0.09 C11.93 -0.05, 59.38 0.15, 71.26 0.19 M-0.06 0.19 C11.76 0.18, 59.23 0.05, 71.11 0" stroke="#2f9e44" stroke-width="1" fill="none"></path></g><g transform="translate(871.8091105651486 1241.7717282015356) rotate(0 35.595252368559954 0.05175881831212337)"><path d="M42.96 10.35 C53.61 6.26, 64.85 2.41, 71.11 0 M42.96 10.35 C53.08 6.68, 63.01 3.06, 71.11 0" stroke="#2f9e44" stroke-width="1" fill="none"></path></g><g transform="translate(871.8091105651486 1241.7717282015356) rotate(0 35.595252368559954 0.05175881831212337)"><path d="M42.89 -10.17 C53.56 -6.38, 64.83 -2.35, 71.11 0 M42.89 -10.17 C53.02 -6.53, 62.97 -2.85, 71.11 0" stroke="#2f9e44" stroke-width="1" fill="none"></path></g></g><mask></mask></svg>