<svg version="1.1" xmlns="http://www.w3.org/2000/svg" viewBox="0 0 2336.0111590496604 1376.5225516702558" width="2336.0111590496604" height="1376.5225516702558" filter="invert(93%) hue-rotate(180deg)">
  <!-- svg-source:excalidraw -->
  
  <defs>
    <style class="style-fonts">
      @font-face {
        font-family: "Virgil";
        src: url("https://excalidraw.com/Virgil.woff2");
      }
      @font-face {
        font-family: "Cascadia";
        src: url("https://excalidraw.com/Cascadia.woff2");
      }
    </style>
    
  </defs>
  <rect x="0" y="0" width="2336.0111590496604" height="1376.5225516702558" fill="#ffffff"></rect><g stroke-linecap="round" transform="translate(10 634.5707211665112) rotate(0 116 124.5)"><path d="M146.25 31.25 M146.25 31.25 C158.49 46.03, 173.04 60, 202.75 93.75 M146.25 31.25 C168.35 55.62, 192.58 80.18, 202.75 93.75 M202.75 93.75 C233.25 123.9, 230.61 124.86, 202.75 156.25 M202.75 93.75 C229.78 124.24, 231.35 126.74, 202.75 156.25 M202.75 156.25 C191.16 170.01, 180.09 181.38, 146.25 217.75 M202.75 156.25 C191.6 169.83, 180.19 181.02, 146.25 217.75 M146.25 217.75 C118.02 247.23, 116.81 250.93, 87.75 217.75 M146.25 217.75 C117.44 247.57, 116.88 249.5, 87.75 217.75 M87.75 217.75 C70.57 200.41, 54.56 179.65, 29.25 156.25 M87.75 217.75 C74.78 203.36, 59.99 187.24, 29.25 156.25 M29.25 156.25 C1.17 125.28, 1.76 125.34, 29.25 93.75 M29.25 156.25 C-1.71 125.44, -0.57 124.01, 29.25 93.75 M29.25 93.75 C44.75 73.65, 65.48 56.23, 87.75 31.25 M29.25 93.75 C49.49 71.53, 70.28 49.76, 87.75 31.25 M87.75 31.25 C117.1 0.61, 117.5 0.63, 146.25 31.25 M87.75 31.25 C118.54 -0.48, 118.33 0.73, 146.25 31.25" stroke="#2f9e44" stroke-width="1" fill="none"></path></g><g transform="translate(93.95001983642578 734.3207211665112) rotate(0 32.04998016357422 25)"><text x="32.04998016357422" y="0" font-family="Virgil, Segoe UI Emoji" font-size="20px" fill="#2f9e44" text-anchor="middle" style="white-space: pre;" direction="ltr" dominant-baseline="text-before-edge">OPEN </text><text x="32.04998016357422" y="25" font-family="Virgil, Segoe UI Emoji" font-size="20px" fill="#2f9e44" text-anchor="middle" style="white-space: pre;" direction="ltr" dominant-baseline="text-before-edge">WEB</text></g><g stroke-linecap="round"><g transform="translate(246.49999999999977 757.5707211665112) rotate(0 70.21453429948536 0.5097060229154522)"><path d="M-1.19 -0.65 C22.11 -0.64, 115.59 -0.26, 139.28 -0.23 M0.39 1.62 C24.12 1.84, 118.23 1.36, 141.62 1.18" stroke="#2f9e44" stroke-width="1" fill="none"></path></g><g transform="translate(246.49999999999977 757.5707211665112) rotate(0 70.21453429948536 0.5097060229154522)"><path d="M112.39 10.41 C120.42 10.82, 127.27 6.26, 140.37 -0.22 M113.4 11.15 C120.74 8.6, 128.03 6.16, 141.31 0.68" stroke="#2f9e44" stroke-width="1" fill="none"></path></g><g transform="translate(246.49999999999977 757.5707211665112) rotate(0 70.21453429948536 0.5097060229154522)"><path d="M112.27 -10.11 C120.28 -4.38, 127.16 -3.62, 140.37 -0.22 M113.28 -9.37 C120.7 -6.56, 128.02 -3.65, 141.31 0.68" stroke="#2f9e44" stroke-width="1" fill="none"></path></g></g><mask></mask><g stroke-linecap="round" transform="translate(429.83333333333303 655.9040544998447) rotate(0 110.83333333333337 93.33333333333337)"><path d="M32 0 M32 0 C82.93 0.18, 132.45 -0.57, 189.67 0 M32 0 C83.06 -0.94, 131.99 -0.38, 189.67 0 M189.67 0 C212.09 -0.27, 221.66 9.58, 221.67 32 M189.67 0 C210.76 1.62, 221.1 10.24, 221.67 32 M221.67 32 C221.06 60.36, 221.09 86.36, 221.67 154.67 M221.67 32 C222.41 73.12, 222.03 116.72, 221.67 154.67 M221.67 154.67 C219.75 174.53, 210.66 185.04, 189.67 186.67 M221.67 154.67 C219.72 176.9, 209.37 187.31, 189.67 186.67 M189.67 186.67 C141.88 185.66, 91.35 186.35, 32 186.67 M189.67 186.67 C138.03 187.21, 86.67 187.48, 32 186.67 M32 186.67 C9.87 188.23, 1.57 175.64, 0 154.67 M32 186.67 C10.59 187.54, -0.03 175.44, 0 154.67 M0 154.67 C-1.24 124.8, 0.29 92.82, 0 32 M0 154.67 C-0.43 111.49, -1.72 66.71, 0 32 M0 32 C-0.5 12.31, 11.77 1.84, 32 0 M0 32 C1.83 11.33, 12.18 -0.37, 32 0" stroke="#2f9e44" stroke-width="1" fill="none"></path></g><g transform="translate(463.10671488443984 736.7373878331782) rotate(0 77.55995178222656 12.5)"><text x="77.55995178222656" y="0" font-family="Virgil, Segoe UI Emoji" font-size="20px" fill="#2f9e44" text-anchor="middle" style="white-space: pre;" direction="ltr" dominant-baseline="text-before-edge">MAIN SECTION</text></g><g stroke-linecap="round"><g transform="translate(657.4888056095017 753.779162561116) rotate(0 108.7701574194117 -0.6575793218627268)"><path d="M0.48 1 C36.78 0.46, 182.02 -1.77, 218.26 -2.32 M-0.72 0.49 C35.34 0.05, 180.86 -0.62, 217.12 -0.87" stroke="#2f9e44" stroke-width="1" fill="none"></path></g><g transform="translate(657.4888056095017 753.779162561116) rotate(0 108.7701574194117 -0.6575793218627268)"><path d="M190.66 8.94 C198.26 4.77, 207.95 2.73, 219.07 -2.11 M189.69 9.75 C194.16 7.16, 201.61 5.62, 217.03 -0.98" stroke="#2f9e44" stroke-width="1" fill="none"></path></g><g transform="translate(657.4888056095017 753.779162561116) rotate(0 108.7701574194117 -0.6575793218627268)"><path d="M190.55 -11.58 C198.34 -8.73, 208.07 -3.76, 219.07 -2.11 M189.57 -10.77 C194 -9.01, 201.48 -6.2, 217.03 -0.98" stroke="#2f9e44" stroke-width="1" fill="none"></path></g></g><mask></mask><g transform="translate(1149.8844628279905 10) rotate(0 216.14674377441406 46.436373804719324)"><text x="216.14674377441406" y="0" font-family="Virgil, Segoe UI Emoji" font-size="74.29819808755089px" fill="#2f9e44" text-anchor="middle" style="white-space: pre;" direction="ltr" dominant-baseline="text-before-edge">USER FLOW</text></g><g stroke-linecap="round" transform="translate(977.2931487960054 463.5710578540163) rotate(0 91.66666666666652 37.5)"><path d="M18.75 0 M18.75 0 C63.66 -1.69, 107.91 -1.03, 164.58 0 M18.75 0 C51.71 -0.15, 86.41 -1.1, 164.58 0 M164.58 0 C177.16 -0.5, 184.11 6.83, 183.33 18.75 M164.58 0 C178.25 -2.3, 183.64 4.17, 183.33 18.75 M183.33 18.75 C183.89 31.79, 182.93 47.05, 183.33 56.25 M183.33 18.75 C183.32 27.6, 183.91 37.03, 183.33 56.25 M183.33 56.25 C185.04 68.7, 176.65 73.4, 164.58 75 M183.33 56.25 C184.53 66.83, 178.8 73.96, 164.58 75 M164.58 75 C130.87 76.59, 92.89 73.85, 18.75 75 M164.58 75 C114.15 75.2, 65.86 76.54, 18.75 75 M18.75 75 C6.74 75.39, -0.6 69.22, 0 56.25 M18.75 75 C4.46 76.91, -2.25 70.02, 0 56.25 M0 56.25 C1.66 45.89, -0.82 30, 0 18.75 M0 56.25 C0.33 46.68, 0.73 35.51, 0 18.75 M0 18.75 C-1.66 6.46, 7.41 1.52, 18.75 0 M0 18.75 C1.73 5.87, 8.46 -1.78, 18.75 0" stroke="#2f9e44" stroke-width="1" fill="none"></path></g><g transform="translate(1009.6198420129654 488.5710578540163) rotate(0 59.33997344970703 12.5)"><text x="59.33997344970703" y="0" font-family="Virgil, Segoe UI Emoji" font-size="20px" fill="#2f9e44" text-anchor="middle" style="white-space: pre;" direction="ltr" dominant-baseline="text-before-edge">STAR WARS</text></g><g stroke-linecap="round" transform="translate(981.2799484870288 558.1935841811282) rotate(0 91.66666666666652 37.5)"><path d="M18.75 0 M18.75 0 C69.4 -1.21, 119.24 -1.09, 164.58 0 M18.75 0 C58.39 0.49, 96.37 -0.58, 164.58 0 M164.58 0 C175.48 1.04, 181.66 7.74, 183.33 18.75 M164.58 0 C176.04 -1.29, 185.56 6.03, 183.33 18.75 M183.33 18.75 C182.64 34.27, 184.68 49.65, 183.33 56.25 M183.33 18.75 C183.45 27.31, 183.2 35.07, 183.33 56.25 M183.33 56.25 C183.81 67.2, 178.74 73.04, 164.58 75 M183.33 56.25 C184.6 69.35, 177.61 75.3, 164.58 75 M164.58 75 C106.27 73.88, 52.14 75.09, 18.75 75 M164.58 75 C113.98 75.4, 64.32 76.81, 18.75 75 M18.75 75 C7.77 76.51, -0.33 70.67, 0 56.25 M18.75 75 C4.47 72.99, 0.96 70.82, 0 56.25 M0 56.25 C1.32 42.86, 0.42 30.6, 0 18.75 M0 56.25 C-1.09 42.49, 0.19 29.76, 0 18.75 M0 18.75 C0.08 6.48, 7.94 -1, 18.75 0 M0 18.75 C1.09 4.17, 5.03 -1, 18.75 0" stroke="#2f9e44" stroke-width="1" fill="none"></path></g><g transform="translate(1034.0466288866055 583.1935841811282) rotate(0 38.899986267089844 12.5)"><text x="38.899986267089844" y="0" font-family="Virgil, Segoe UI Emoji" font-size="20px" fill="#2f9e44" text-anchor="middle" style="white-space: pre;" direction="ltr" dominant-baseline="text-before-edge">MARVEL</text></g><g stroke-linecap="round" transform="translate(980.0690419654125 836.3506342331762) rotate(0 91.66666666666652 37.5)"><path d="M18.75 0 M18.75 0 C70.13 -2.88, 117.54 -1.48, 164.58 0 M18.75 0 C52.5 -0.1, 86.55 -0.21, 164.58 0 M164.58 0 C177.1 0.91, 182.6 6.89, 183.33 18.75 M164.58 0 C176.12 -0.31, 184.35 4.51, 183.33 18.75 M183.33 18.75 C184.46 28.86, 185.24 35.43, 183.33 56.25 M183.33 18.75 C183.44 29.71, 183.51 41.57, 183.33 56.25 M183.33 56.25 C183.98 67.69, 176.77 75.87, 164.58 75 M183.33 56.25 C184.68 67.33, 175.7 74.12, 164.58 75 M164.58 75 C130.43 76.95, 95.29 76.68, 18.75 75 M164.58 75 C133.49 74.53, 101.03 74.47, 18.75 75 M18.75 75 C7.86 74.19, 1.73 69.99, 0 56.25 M18.75 75 C7.9 76.69, 0.09 70.64, 0 56.25 M0 56.25 C-0.12 44.4, 0.16 31.48, 0 18.75 M0 56.25 C0.19 44.03, 0.4 30.98, 0 18.75 M0 18.75 C-1.54 5.33, 5.81 0.89, 18.75 0 M0 18.75 C1.29 4.29, 7.67 1.28, 18.75 0" stroke="#2f9e44" stroke-width="1" fill="none"></path></g><g transform="translate(994.7857650895985 861.3506342331762) rotate(0 76.94994354248047 12.5)"><text x="76.94994354248047" y="0" font-family="Virgil, Segoe UI Emoji" font-size="20px" fill="#2f9e44" text-anchor="middle" style="white-space: pre;" direction="ltr" dominant-baseline="text-before-edge">THE SIMPSONS</text></g><g stroke-linecap="round" transform="translate(981.0603421160092 744.4776139910848) rotate(0 91.66666666666652 37.5)"><path d="M18.75 0 M18.75 0 C62.39 -0.22, 107.71 0.95, 164.58 0 M18.75 0 C57.03 1.05, 94.84 -0.06, 164.58 0 M164.58 0 C177.69 1.91, 184.35 7.63, 183.33 18.75 M164.58 0 C179.15 -0.91, 183.35 5.25, 183.33 18.75 M183.33 18.75 C184.11 29.82, 184.08 38.82, 183.33 56.25 M183.33 18.75 C182.88 28.81, 183.11 39.42, 183.33 56.25 M183.33 56.25 C182.21 70.33, 177.26 75.8, 164.58 75 M183.33 56.25 C182.61 69.36, 175.17 77.18, 164.58 75 M164.58 75 C117.08 72.14, 72.33 73.04, 18.75 75 M164.58 75 C108.97 76.09, 52.7 76.45, 18.75 75 M18.75 75 C6.4 75.7, -0.09 69.66, 0 56.25 M18.75 75 C6.47 75.87, 0.61 68.6, 0 56.25 M0 56.25 C0.69 42.33, -1.6 30.6, 0 18.75 M0 56.25 C-1.02 46.43, 0.39 35.99, 0 18.75 M0 18.75 C-1.58 5.89, 4.64 -1.43, 18.75 0 M0 18.75 C0.28 8.09, 4.01 0, 18.75 0" stroke="#2f9e44" stroke-width="1" fill="none"></path></g><g transform="translate(1044.8470191586523 769.4776139910848) rotate(0 27.879989624023438 12.5)"><text x="27.879989624023438" y="0" font-family="Virgil, Segoe UI Emoji" font-size="20px" fill="#2f9e44" text-anchor="middle" style="white-space: pre;" direction="ltr" dominant-baseline="text-before-edge">LEGO</text></g><g stroke-linecap="round" transform="translate(980.6305739520167 657.579983658067) rotate(0 91.66666666666652 37.5)"><path d="M18.75 0 M18.75 0 C56.9 1.49, 94.08 -0.73, 164.58 0 M18.75 0 C67.58 0.16, 114.64 -0.73, 164.58 0 M164.58 0 C176.21 -0.37, 183.88 5.6, 183.33 18.75 M164.58 0 C177.85 0.59, 184.08 5.03, 183.33 18.75 M183.33 18.75 C182.26 28.21, 182.73 38.78, 183.33 56.25 M183.33 18.75 C184.03 27.58, 183.89 36.2, 183.33 56.25 M183.33 56.25 C185.23 69.19, 178.16 73.42, 164.58 75 M183.33 56.25 C182.68 66.79, 178.94 74.07, 164.58 75 M164.58 75 C109.7 76.13, 53.52 76.85, 18.75 75 M164.58 75 C120.18 75.03, 75.25 75.2, 18.75 75 M18.75 75 C6.12 75.6, 0.33 68.8, 0 56.25 M18.75 75 C7.12 73.22, -1.77 67.7, 0 56.25 M0 56.25 C-1.87 47.05, 0.95 36.59, 0 18.75 M0 56.25 C-0.65 48.09, 0.87 38.72, 0 18.75 M0 18.75 C0 6.9, 5.11 -0.52, 18.75 0 M0 18.75 C-0.91 6.86, 6.38 0.15, 18.75 0" stroke="#2f9e44" stroke-width="1" fill="none"></path></g><g transform="translate(1040.9172586240543 682.579983658067) rotate(0 31.379981994628906 12.5)"><text x="31.379981994628906" y="0" font-family="Virgil, Segoe UI Emoji" font-size="20px" fill="#2f9e44" text-anchor="middle" style="white-space: pre;" direction="ltr" dominant-baseline="text-before-edge">PIXAR</text></g><g stroke-linecap="round" transform="translate(984.411105149565 929.2272405499084) rotate(0 91.66666666666652 37.5)"><path d="M18.75 0 M18.75 0 C54.19 0.53, 89.35 2.53, 164.58 0 M18.75 0 C69.15 -0.99, 117.13 0.4, 164.58 0 M164.58 0 C175.37 0.25, 183.78 5.12, 183.33 18.75 M164.58 0 C179.18 -1.17, 181.99 4.94, 183.33 18.75 M183.33 18.75 C182.21 34.69, 181.86 46.05, 183.33 56.25 M183.33 18.75 C183.57 31.49, 183.09 45.26, 183.33 56.25 M183.33 56.25 C183.32 68.85, 176.18 73.9, 164.58 75 M183.33 56.25 C184.65 69.85, 179.31 77.25, 164.58 75 M164.58 75 C133.34 73.19, 102.91 72.01, 18.75 75 M164.58 75 C115.35 77.02, 68.54 75.41, 18.75 75 M18.75 75 C4.55 74.02, -1.21 69.23, 0 56.25 M18.75 75 C7.28 73.78, 1.09 69.16, 0 56.25 M0 56.25 C1.75 44.78, -0.66 33.69, 0 18.75 M0 56.25 C-0.6 46.68, 0.8 38.88, 0 18.75 M0 18.75 C-1.36 5.39, 5.68 1.57, 18.75 0 M0 18.75 C-0.16 6.61, 8.43 0.61, 18.75 0" stroke="#2f9e44" stroke-width="1" fill="none"></path></g><g transform="translate(1038.4077965354697 954.2272405499084) rotate(0 37.66997528076172 12.5)"><text x="37.66997528076172" y="0" font-family="Virgil, Segoe UI Emoji" font-size="20px" fill="#2f9e44" text-anchor="middle" style="white-space: pre;" direction="ltr" dominant-baseline="text-before-edge">DISNEY</text></g><g stroke-linecap="round"><g transform="translate(873.8271581130136 498.54272198037404) rotate(0 -1.399074600165818 242.5786402828378)"><path d="M-0.08 -0.78 C-0.52 80.11, -1.75 403.58, -1.93 484.36 M-1.58 1.42 C-2.22 82.61, -2.75 405.34, -2.71 485.94" stroke="#2f9e44" stroke-width="1" fill="none"></path></g></g><mask></mask><g stroke-linecap="round"><g transform="translate(872.8954239549373 499.4523741236303) rotate(0 41.5199859510717 -0.7609367949751231)"><path d="M0.35 0.06 C14.28 -0.05, 69.92 -1.59, 83.96 -1.58 M-0.92 -0.95 C12.85 -0.87, 69.04 -0.47, 83.27 -0.63" stroke="#2f9e44" stroke-width="1" fill="none"></path></g><g transform="translate(872.8954239549373 499.4523741236303) rotate(0 41.5199859510717 -0.7609367949751231)"><path d="M55.18 10.45 C62.76 7.99, 75.06 3.62, 82.21 -0.94 M55.34 9.95 C60.98 7.1, 67.03 5.35, 84.06 -1.47" stroke="#2f9e44" stroke-width="1" fill="none"></path></g><g transform="translate(872.8954239549373 499.4523741236303) rotate(0 41.5199859510717 -0.7609367949751231)"><path d="M55.17 -10.07 C62.59 -5.64, 74.9 -3.13, 82.21 -0.94 M55.32 -10.57 C60.98 -8.87, 67.03 -6.07, 84.06 -1.47" stroke="#2f9e44" stroke-width="1" fill="none"></path></g></g><mask></mask><g stroke-linecap="round"><g transform="translate(874.6320140518476 596.0619497300313) rotate(0 42.40964410474362 -0.7365744093318654)"><path d="M-0.38 -0.51 C13.4 -0.61, 68.77 -0.82, 82.83 -0.94 M1.62 -1.83 C15.78 -1.73, 71.56 0.1, 85.2 0.35" stroke="#2f9e44" stroke-width="1" fill="none"></path></g><g transform="translate(874.6320140518476 596.0619497300313) rotate(0 42.40964410474362 -0.7365744093318654)"><path d="M55.9 8.79 C64.86 7.81, 73.23 5.02, 84.31 -0.05 M55.9 10.57 C64.86 6.64, 73.44 4.44, 84.43 -0.28" stroke="#2f9e44" stroke-width="1" fill="none"></path></g><g transform="translate(874.6320140518476 596.0619497300313) rotate(0 42.40964410474362 -0.7365744093318654)"><path d="M56.44 -11.72 C65.18 -6.31, 73.37 -2.71, 84.31 -0.05 M56.44 -9.95 C65.14 -7.59, 73.55 -3.53, 84.43 -0.28" stroke="#2f9e44" stroke-width="1" fill="none"></path></g></g><mask></mask><g stroke-linecap="round"><g transform="translate(871.6474060196072 694.5540147939871) rotate(0 41.241832214075316 -0.4469321078786379)"><path d="M-1.19 0.46 C12.57 0.37, 69.68 -1.35, 83.67 -1.35 M0.39 -0.35 C13.9 -0.24, 68.68 -0.1, 82.83 -0.28" stroke="#2f9e44" stroke-width="1" fill="none"></path></g><g transform="translate(871.6474060196072 694.5540147939871) rotate(0 41.241832214075316 -0.4469321078786379)"><path d="M55.44 10.42 C64.41 5.1, 78.53 0.51, 83.82 0.3 M55.51 10.32 C65.47 5.09, 76.11 2.47, 82.3 -0.78" stroke="#2f9e44" stroke-width="1" fill="none"></path></g><g transform="translate(871.6474060196072 694.5540147939871) rotate(0 41.241832214075316 -0.4469321078786379)"><path d="M55.36 -10.1 C64.21 -7.31, 78.37 -3.79, 83.82 0.3 M55.43 -10.2 C65.25 -7.55, 75.92 -2.3, 82.3 -0.78" stroke="#2f9e44" stroke-width="1" fill="none"></path></g></g><mask></mask><g stroke-linecap="round"><g transform="translate(873.6371447077677 775.1384316644967) rotate(0 41.8904182488501 -0.06950339745947076)"><path d="M-0.32 0.7 C13.72 0.76, 70.32 0.99, 84.1 0.6 M1.72 0.02 C15.66 -0.26, 69.65 -0.81, 83.47 -0.96" stroke="#2f9e44" stroke-width="1" fill="none"></path></g><g transform="translate(873.6371447077677 775.1384316644967) rotate(0 41.8904182488501 -0.06950339745947076)"><path d="M56.56 10.64 C65.29 4.77, 69.72 5.12, 84.74 0.22 M56.1 9.58 C66.73 6.2, 76.48 1.53, 83.62 -0.27" stroke="#2f9e44" stroke-width="1" fill="none"></path></g><g transform="translate(873.6371447077677 775.1384316644967) rotate(0 41.8904182488501 -0.06950339745947076)"><path d="M56.34 -9.88 C65.17 -9.81, 69.67 -3.52, 84.74 0.22 M55.88 -10.94 C66.62 -6.36, 76.45 -3.07, 83.62 -0.27" stroke="#2f9e44" stroke-width="1" fill="none"></path></g></g><mask></mask><g stroke-linecap="round"><g transform="translate(876.621752740009 871.640758040292) rotate(0 41.960932054573846 0.1907667016338337)"><path d="M0.79 0.62 C14.84 0.39, 70.44 -0.48, 84.17 -0.57 M-0.25 -0.1 C13.7 -0.2, 69.84 1.23, 83.59 0.91" stroke="#2f9e44" stroke-width="1" fill="none"></path></g><g transform="translate(876.621752740009 871.640758040292) rotate(0 41.960932054573846 0.1907667016338337)"><path d="M56.38 12.2 C63.38 7.39, 72.68 3.84, 82.89 -0.55 M54.58 11.13 C60.71 8.68, 67.26 6.75, 83.58 1.85" stroke="#2f9e44" stroke-width="1" fill="none"></path></g><g transform="translate(876.621752740009 871.640758040292) rotate(0 41.960932054573846 0.1907667016338337)"><path d="M56.47 -8.32 C63.58 -7.12, 72.85 -4.66, 82.89 -0.55 M54.67 -9.39 C60.81 -7.53, 67.33 -5.16, 83.58 1.85" stroke="#2f9e44" stroke-width="1" fill="none"></path></g></g><mask></mask><g stroke-linecap="round"><g transform="translate(872.6422753636875 983.0661245772926) rotate(0 41.374355059618324 -0.6581198043354561)"><path d="M0.59 0.02 C14.37 -0.4, 69.63 -1.27, 83.31 -1.33 M-0.56 -1.02 C12.99 -0.8, 68 -0.59, 82.28 -0.25" stroke="#2f9e44" stroke-width="1" fill="none"></path></g><g transform="translate(872.6422753636875 983.0661245772926) rotate(0 41.374355059618324 -0.6581198043354561)"><path d="M53.98 9.37 C62.42 4.64, 74.08 1.6, 82.31 0.42 M54.56 10.55 C64.99 6, 75.28 2.69, 81.94 -1.13" stroke="#2f9e44" stroke-width="1" fill="none"></path></g><g transform="translate(872.6422753636875 983.0661245772926) rotate(0 41.374355059618324 -0.6581198043354561)"><path d="M54.25 -11.15 C62.79 -8.63, 74.36 -4.42, 82.31 0.42 M54.82 -9.97 C65.09 -7.03, 75.27 -2.87, 81.94 -1.13" stroke="#2f9e44" stroke-width="1" fill="none"></path></g></g><mask></mask><g stroke-linecap="round"><g transform="translate(1172.0118352659467 501.170212265086) rotate(0 41.206954913812865 -0.25518251093825484)"><path d="M-0.68 -0.82 C13.15 -0.93, 69.05 0.05, 83.1 0 M1.16 1.36 C14.79 0.83, 68.32 -1.63, 81.95 -1.87" stroke="#2f9e44" stroke-width="1" fill="none"></path></g><g transform="translate(1172.0118352659467 501.170212265086) rotate(0 41.206954913812865 -0.25518251093825484)"><path d="M52.75 8.7 C63.47 6.24, 70.25 0.79, 80.53 -3.18 M53.53 8.56 C60.4 7.18, 68.5 3.75, 81.68 -2.42" stroke="#2f9e44" stroke-width="1" fill="none"></path></g><g transform="translate(1172.0118352659467 501.170212265086) rotate(0 41.206954913812865 -0.25518251093825484)"><path d="M52.06 -11.81 C63.1 -7.91, 70.1 -7.01, 80.53 -3.18 M52.84 -11.95 C60.03 -8.01, 68.3 -6.13, 81.68 -2.42" stroke="#2f9e44" stroke-width="1" fill="none"></path></g></g><mask></mask><g stroke-linecap="round"><g transform="translate(1169.1986611580671 597.62363703609) rotate(0 41.47441602205686 -0.8919659929413228)"><path d="M0.03 -0.02 C13.99 0.01, 70.61 0.12, 84.35 0.07 M-1.41 -1.08 C12.41 -1.4, 69.48 -2.13, 83.87 -1.77" stroke="#2f9e44" stroke-width="1" fill="none"></path></g><g transform="translate(1169.1986611580671 597.62363703609) rotate(0 41.47441602205686 -0.8919659929413228)"><path d="M55.61 9.87 C66.54 3.22, 75.86 -0.18, 85.28 -3.31 M54.97 8.75 C65.64 5.19, 77.6 1.19, 84.16 -1.56" stroke="#2f9e44" stroke-width="1" fill="none"></path></g><g transform="translate(1169.1986611580671 597.62363703609) rotate(0 41.47441602205686 -0.8919659929413228)"><path d="M55.67 -10.66 C66.56 -10.04, 75.86 -6.17, 85.28 -3.31 M55.03 -11.77 C65.79 -7.4, 77.73 -3.47, 84.16 -1.56" stroke="#2f9e44" stroke-width="1" fill="none"></path></g></g><mask></mask><g stroke-linecap="round"><g transform="translate(1168.2015758021032 693.3438312086339) rotate(0 41.857726797962755 -0.5383118026622924)"><path d="M-0.92 0.83 C12.93 0.88, 68.53 0.1, 82.46 -0.02 M0.79 0.22 C15.07 -0.07, 70.58 -1.54, 84.64 -1.91" stroke="#2f9e44" stroke-width="1" fill="none"></path></g><g transform="translate(1168.2015758021032 693.3438312086339) rotate(0 41.857726797962755 -0.5383118026622924)"><path d="M58.11 7.39 C64.29 5.28, 71.24 2.5, 83.49 0.09 M57.18 8.68 C66.7 4.47, 75.89 1.6, 85.24 -1.17" stroke="#2f9e44" stroke-width="1" fill="none"></path></g><g transform="translate(1168.2015758021032 693.3438312086339) rotate(0 41.857726797962755 -0.5383118026622924)"><path d="M57.57 -13.12 C63.83 -10.24, 70.91 -8.03, 83.49 0.09 M56.64 -11.83 C66.35 -8.77, 75.73 -4.37, 85.24 -1.17" stroke="#2f9e44" stroke-width="1" fill="none"></path></g></g><mask></mask><g stroke-linecap="round"><g transform="translate(1170.1957465140313 784.078598601358) rotate(0 42.01330387391454 -1.2731754797980557)"><path d="M-0.59 -0.41 C13.49 -0.47, 70.41 -0.35, 84.62 -0.27 M1.3 -1.67 C15.31 -2.13, 70.39 -2.24, 84.27 -2.28" stroke="#2f9e44" stroke-width="1" fill="none"></path></g><g transform="translate(1170.1957465140313 784.078598601358) rotate(0 42.01330387391454 -1.2731754797980557)"><path d="M55.42 9.96 C65.17 6.99, 74.55 2.86, 85.24 -0.86 M56.5 7.9 C65.44 4.47, 72.92 1.7, 84.93 -1.37" stroke="#2f9e44" stroke-width="1" fill="none"></path></g><g transform="translate(1170.1957465140313 784.078598601358) rotate(0 42.01330387391454 -1.2731754797980557)"><path d="M55.36 -10.56 C65.14 -7.17, 74.54 -4.93, 85.24 -0.86 M56.44 -12.62 C65.57 -9.82, 73.07 -6.37, 84.93 -1.37" stroke="#2f9e44" stroke-width="1" fill="none"></path></g></g><mask></mask><g stroke-linecap="round"><g transform="translate(1163.2161490222834 874.8133659940818) rotate(0 41.68453042306305 -0.7214392349274021)"><path d="M-0.73 -1.18 C13.37 -1.19, 69.88 -0.51, 84.1 -0.41 M1.09 0.82 C15.13 0.47, 69.59 -2.28, 83.47 -2.26" stroke="#2f9e44" stroke-width="1" fill="none"></path></g><g transform="translate(1163.2161490222834 874.8133659940818) rotate(0 41.68453042306305 -0.7214392349274021)"><path d="M53.62 9.81 C63.68 7.93, 70.57 3.74, 84.36 -2.67 M56.02 8.86 C62.16 5.67, 68.72 3.27, 83.2 -1.35" stroke="#2f9e44" stroke-width="1" fill="none"></path></g><g transform="translate(1163.2161490222834 874.8133659940818) rotate(0 41.68453042306305 -0.7214392349274021)"><path d="M53.05 -10.7 C63.2 -7.28, 70.24 -6.17, 84.36 -2.67 M55.45 -11.65 C61.82 -9.72, 68.52 -7.01, 83.2 -1.35" stroke="#2f9e44" stroke-width="1" fill="none"></path></g></g><mask></mask><g stroke-linecap="round"><g transform="translate(1170.1957465140313 966.5452187427695) rotate(0 41.92379441100934 -0.3748236916518408)"><path d="M1.18 0.91 C15.18 0.89, 69.88 0.32, 83.5 0.15 M0.35 0.33 C14.23 -0.05, 68.98 -1.22, 82.56 -1.65" stroke="#2f9e44" stroke-width="1" fill="none"></path></g><g transform="translate(1170.1957465140313 966.5452187427695) rotate(0 41.92379441100934 -0.3748236916518408)"><path d="M56.16 9.37 C62.87 5.28, 69.65 2.89, 82.22 -1.18 M54.98 9.51 C64.38 4.46, 76.07 0.57, 83.14 -1.07" stroke="#2f9e44" stroke-width="1" fill="none"></path></g><g transform="translate(1170.1957465140313 966.5452187427695) rotate(0 41.92379441100934 -0.3748236916518408)"><path d="M55.63 -11.14 C62.51 -9.93, 69.43 -7.02, 82.22 -1.18 M54.44 -11.01 C64 -8.22, 75.9 -4.26, 83.14 -1.07" stroke="#2f9e44" stroke-width="1" fill="none"></path></g></g><mask></mask><g stroke-linecap="round" transform="translate(1270.2488902795194 464.3560657413045) rotate(0 91.66666666666652 37.5)"><path d="M18.75 0 M18.75 0 C70.6 1.41, 125.17 2.82, 164.58 0 M18.75 0 C71.35 -0.78, 124.91 -0.86, 164.58 0 M164.58 0 C177.84 -0.86, 182.41 7.42, 183.33 18.75 M164.58 0 C178.81 -0.32, 184.55 4.63, 183.33 18.75 M183.33 18.75 C181.77 27.93, 183.2 36.29, 183.33 56.25 M183.33 18.75 C182.54 28.03, 182.76 36.22, 183.33 56.25 M183.33 56.25 C184.64 67.94, 177.47 74.14, 164.58 75 M183.33 56.25 C184.39 69.47, 175.21 76.4, 164.58 75 M164.58 75 C132.32 77.97, 98.81 75.43, 18.75 75 M164.58 75 C111.1 74.28, 57.95 73.17, 18.75 75 M18.75 75 C8.16 76.9, -1.24 69.89, 0 56.25 M18.75 75 C7.85 75.01, 0.64 67.59, 0 56.25 M0 56.25 C-0.55 44.1, -0.18 31.9, 0 18.75 M0 56.25 C-0.07 48.41, 0.27 39.48, 0 18.75 M0 18.75 C1.54 6.1, 8.25 1.6, 18.75 0 M0 18.75 C1.33 4.58, 8.48 -0.92, 18.75 0" stroke="#2f9e44" stroke-width="1" fill="none"></path></g><g transform="translate(1282.2256002811469 489.3560657413045) rotate(0 79.68995666503906 12.5)"><text x="79.68995666503906" y="0" font-family="Virgil, Segoe UI Emoji" font-size="20px" fill="#2f9e44" text-anchor="middle" style="white-space: pre;" direction="ltr" dominant-baseline="text-before-edge">ALL PRODUCTS</text></g><g stroke-linecap="round" transform="translate(1271.3579613137285 556.408961580692) rotate(0 91.66666666666652 37.5)"><path d="M18.75 0 M18.75 0 C56.58 -2.17, 96.05 -2.34, 164.58 0 M18.75 0 C54.95 1.41, 92.38 0.11, 164.58 0 M164.58 0 C178.97 1.81, 182.76 5.16, 183.33 18.75 M164.58 0 C176.94 0.39, 184.95 8.53, 183.33 18.75 M183.33 18.75 C184.28 29.44, 184.14 37.29, 183.33 56.25 M183.33 18.75 C183.41 32.73, 183.6 48.5, 183.33 56.25 M183.33 56.25 C183.62 69.68, 178.13 76.3, 164.58 75 M183.33 56.25 C181.81 67.18, 175.36 73.23, 164.58 75 M164.58 75 C134.51 78.08, 105.37 78.02, 18.75 75 M164.58 75 C125.99 74.3, 86.12 73.98, 18.75 75 M18.75 75 C5.31 74.99, -1.46 68.14, 0 56.25 M18.75 75 C7.49 73.97, 0.32 67.84, 0 56.25 M0 56.25 C-1.18 44.12, -0.52 29.56, 0 18.75 M0 56.25 C-0.53 46.97, 0.29 38.16, 0 18.75 M0 18.75 C-1.68 4.77, 6.53 -1.21, 18.75 0 M0 18.75 C0.09 5.19, 7.06 -1.3, 18.75 0" stroke="#2f9e44" stroke-width="1" fill="none"></path></g><g transform="translate(1283.334671315356 581.408961580692) rotate(0 79.68995666503906 12.5)"><text x="79.68995666503906" y="0" font-family="Virgil, Segoe UI Emoji" font-size="20px" fill="#2f9e44" text-anchor="middle" style="white-space: pre;" direction="ltr" dominant-baseline="text-before-edge">ALL PRODUCTS</text></g><g stroke-linecap="round" transform="translate(1268.0307482111002 650.6799994884982) rotate(0 91.66666666666652 37.5)"><path d="M18.75 0 M18.75 0 C66.28 -0.78, 113.8 -0.25, 164.58 0 M18.75 0 C49.57 0.26, 82.05 0.16, 164.58 0 M164.58 0 C178.55 -1.38, 183.41 4.65, 183.33 18.75 M164.58 0 C177.29 -0.14, 184.35 8.41, 183.33 18.75 M183.33 18.75 C183.82 29.8, 182.41 41.41, 183.33 56.25 M183.33 18.75 C183.75 26.5, 183.85 34.24, 183.33 56.25 M183.33 56.25 C182.66 70.24, 177.62 73.29, 164.58 75 M183.33 56.25 C184.63 67.56, 175.03 73.3, 164.58 75 M164.58 75 C134.94 77.15, 102.24 74.69, 18.75 75 M164.58 75 C110.38 73.57, 54.78 73.97, 18.75 75 M18.75 75 C6.13 76.62, 1.71 69.11, 0 56.25 M18.75 75 C5.84 75.44, 1.95 71, 0 56.25 M0 56.25 C-1.73 43.87, -0.56 35.7, 0 18.75 M0 56.25 C0.09 46.3, -0.79 36.77, 0 18.75 M0 18.75 C-1.75 5.86, 4.43 -1.56, 18.75 0 M0 18.75 C-0.72 5.75, 8.18 1.86, 18.75 0" stroke="#2f9e44" stroke-width="1" fill="none"></path></g><g transform="translate(1280.0074582127277 675.6799994884982) rotate(0 79.68995666503906 12.5)"><text x="79.68995666503906" y="0" font-family="Virgil, Segoe UI Emoji" font-size="20px" fill="#2f9e44" text-anchor="middle" style="white-space: pre;" direction="ltr" dominant-baseline="text-before-edge">ALL PRODUCTS</text></g><g stroke-linecap="round" transform="translate(1265.8126061426813 744.9510373963053) rotate(0 91.66666666666652 37.5)"><path d="M18.75 0 M18.75 0 C63.5 -2.24, 108.25 0.78, 164.58 0 M18.75 0 C69.53 -1.64, 119.96 -2.17, 164.58 0 M164.58 0 C176.9 0.44, 182.73 7.14, 183.33 18.75 M164.58 0 C176.11 -0.8, 182.97 6.48, 183.33 18.75 M183.33 18.75 C182 34.3, 183.13 45.72, 183.33 56.25 M183.33 18.75 C183.28 26.1, 184.36 35.26, 183.33 56.25 M183.33 56.25 C184.6 69.6, 178.11 76.98, 164.58 75 M183.33 56.25 C182.85 69.62, 177.41 76.99, 164.58 75 M164.58 75 C109.32 76.1, 52.25 74.56, 18.75 75 M164.58 75 C133.47 74.89, 103.51 75.75, 18.75 75 M18.75 75 C5.17 75.4, 0.76 66.91, 0 56.25 M18.75 75 C6.36 72.8, 0.19 70.66, 0 56.25 M0 56.25 C-1.1 47.78, 0.47 37.45, 0 18.75 M0 56.25 C0.36 42.58, -0.09 29.43, 0 18.75 M0 18.75 C0.2 7.77, 7.13 1.31, 18.75 0 M0 18.75 C-2.06 4.25, 6.78 -0.39, 18.75 0" stroke="#2f9e44" stroke-width="1" fill="none"></path></g><g transform="translate(1277.7893161443087 769.9510373963053) rotate(0 79.68995666503906 12.5)"><text x="79.68995666503906" y="0" font-family="Virgil, Segoe UI Emoji" font-size="20px" fill="#2f9e44" text-anchor="middle" style="white-space: pre;" direction="ltr" dominant-baseline="text-before-edge">ALL PRODUCTS</text></g><g stroke-linecap="round" transform="translate(1263.5944640742625 832.5676490988542) rotate(0 91.66666666666652 37.5)"><path d="M18.75 0 M18.75 0 C71.86 2.35, 127.3 1.04, 164.58 0 M18.75 0 C69.96 -1.78, 120.41 -1.75, 164.58 0 M164.58 0 C176.14 0.96, 183.07 5.3, 183.33 18.75 M164.58 0 C179.3 0.35, 181.54 5.11, 183.33 18.75 M183.33 18.75 C181.73 30.58, 182.27 45.46, 183.33 56.25 M183.33 18.75 C184.51 30.69, 183.05 44.59, 183.33 56.25 M183.33 56.25 C182.94 70.63, 178.29 73.09, 164.58 75 M183.33 56.25 C182.86 70.25, 177.65 76.24, 164.58 75 M164.58 75 C122.46 72.58, 82.54 72.55, 18.75 75 M164.58 75 C109.12 74.07, 53.88 74.42, 18.75 75 M18.75 75 C6.41 73.64, -1.67 68.69, 0 56.25 M18.75 75 C5.14 76.91, 2.07 70.8, 0 56.25 M0 56.25 C-0.23 48.01, 2.02 37.73, 0 18.75 M0 56.25 C-0.34 45.72, 0.86 34.61, 0 18.75 M0 18.75 C1.24 7.25, 5.21 1.72, 18.75 0 M0 18.75 C1.21 4.26, 8.22 -2.15, 18.75 0" stroke="#2f9e44" stroke-width="1" fill="none"></path></g><g transform="translate(1275.57117407589 857.5676490988542) rotate(0 79.68995666503906 12.5)"><text x="79.68995666503906" y="0" font-family="Virgil, Segoe UI Emoji" font-size="20px" fill="#2f9e44" text-anchor="middle" style="white-space: pre;" direction="ltr" dominant-baseline="text-before-edge">ALL PRODUCTS</text></g><g stroke-linecap="round" transform="translate(1261.3763220058436 930.1659001092896) rotate(0 91.66666666666652 37.5)"><path d="M18.75 0 M18.75 0 C53.6 1.02, 86.53 0.47, 164.58 0 M18.75 0 C72.85 -0.28, 127.59 0.12, 164.58 0 M164.58 0 C175.3 -0.21, 182.43 5.9, 183.33 18.75 M164.58 0 C178.52 -1.83, 181.41 4.9, 183.33 18.75 M183.33 18.75 C184.25 27.56, 184.26 36.08, 183.33 56.25 M183.33 18.75 C184 28.34, 183.35 37.54, 183.33 56.25 M183.33 56.25 C182.9 70.65, 175.48 74.11, 164.58 75 M183.33 56.25 C182.52 67.74, 178 75.76, 164.58 75 M164.58 75 C129.39 74.71, 91.29 75.07, 18.75 75 M164.58 75 C135.21 74.98, 105.16 75.88, 18.75 75 M18.75 75 C5.54 74.7, -1.14 66.86, 0 56.25 M18.75 75 C7.12 73.55, 1.77 70, 0 56.25 M0 56.25 C0.63 48.96, -0.52 40.6, 0 18.75 M0 56.25 C-0.42 46.25, -1.06 35.38, 0 18.75 M0 18.75 C0.27 5.37, 5.61 0.92, 18.75 0 M0 18.75 C1 7.92, 6.83 2.14, 18.75 0" stroke="#2f9e44" stroke-width="1" fill="none"></path></g><g transform="translate(1273.353032007471 955.1659001092896) rotate(0 79.68995666503906 12.5)"><text x="79.68995666503906" y="0" font-family="Virgil, Segoe UI Emoji" font-size="20px" fill="#2f9e44" text-anchor="middle" style="white-space: pre;" direction="ltr" dominant-baseline="text-before-edge">ALL PRODUCTS</text></g><g stroke-linecap="round"><g transform="translate(1461.5694348916702 500.0611412308765) rotate(0 41.70359974451662 -0.34268258842422483)"><path d="M-1.1 -0.13 C13.07 -0.18, 70.24 -0.76, 84.5 -0.8 M0.53 -1.25 C14.68 -1.07, 70.14 0.19, 84.09 0.56" stroke="#2f9e44" stroke-width="1" fill="none"></path></g><g transform="translate(1461.5694348916702 500.0611412308765) rotate(0 41.70359974451662 -0.34268258842422483)"><path d="M55.44 11.85 C62.44 9.65, 70.42 3.65, 84.35 1.87 M55.7 10.28 C60.99 8.47, 68.27 5.27, 83.46 0.52" stroke="#2f9e44" stroke-width="1" fill="none"></path></g><g transform="translate(1461.5694348916702 500.0611412308765) rotate(0 41.70359974451662 -0.34268258842422483)"><path d="M55.94 -8.67 C62.72 -5.61, 70.57 -6.34, 84.35 1.87 M56.19 -10.23 C61.54 -7.47, 68.71 -6.1, 83.46 0.52" stroke="#2f9e44" stroke-width="1" fill="none"></path></g></g><mask></mask><g stroke-linecap="round"><g transform="translate(1458.7562607837906 596.5145660018809) rotate(0 42.30265460079363 -0.17950948926409183)"><path d="M1.03 -0.33 C15.29 -0.37, 70.94 -0.39, 84.5 -0.39 M0.11 -1.55 C14.4 -1.37, 69.99 0.75, 84.09 1.19" stroke="#2f9e44" stroke-width="1" fill="none"></path></g><g transform="translate(1458.7562607837906 596.5145660018809) rotate(0 42.30265460079363 -0.17950948926409183)"><path d="M55 12.17 C61.65 6.46, 67.72 7.66, 82.54 2.82 M54.63 11.16 C66.32 6.55, 76.42 3.39, 83.17 1.68" stroke="#2f9e44" stroke-width="1" fill="none"></path></g><g transform="translate(1458.7562607837906 596.5145660018809) rotate(0 42.30265460079363 -0.17950948926409183)"><path d="M55.72 -8.34 C62.2 -9.77, 68.11 -4.29, 82.54 2.82 M55.34 -9.35 C66.77 -6.23, 76.6 -1.66, 83.17 1.68" stroke="#2f9e44" stroke-width="1" fill="none"></path></g></g><mask></mask><g stroke-linecap="round"><g transform="translate(1457.7591754278262 692.2347601744243) rotate(0 42.305467229665396 0.18890544262933417)"><path d="M1.02 0.08 C14.58 0.08, 68.5 -0.07, 82.38 -0.32 M0.1 -0.92 C13.92 -0.67, 70.54 1.24, 84.51 1.3" stroke="#2f9e44" stroke-width="1" fill="none"></path></g><g transform="translate(1457.7591754278262 692.2347601744243) rotate(0 42.305467229665396 0.18890544262933417)"><path d="M56.25 9.13 C67.34 8.3, 76.49 4.89, 86.05 1.37 M56.13 10.58 C64.49 7.69, 73.13 5.18, 84.17 0.97" stroke="#2f9e44" stroke-width="1" fill="none"></path></g><g transform="translate(1457.7591754278262 692.2347601744243) rotate(0 42.305467229665396 0.18890544262933417)"><path d="M56.68 -11.39 C67.55 -4.3, 76.53 0.2, 86.05 1.37 M56.56 -9.94 C64.59 -6.38, 73.1 -2.44, 84.17 0.97" stroke="#2f9e44" stroke-width="1" fill="none"></path></g></g><mask></mask><g stroke-linecap="round"><g transform="translate(1459.7533461397545 782.9695275671486) rotate(0 41.57979548521632 -0.6225593559194067)"><path d="M-1.1 0.15 C12.77 -0.1, 70 -1.45, 84.26 -1.39 M0.52 -0.82 C14.22 -0.95, 69.78 -0.25, 83.72 -0.34" stroke="#2f9e44" stroke-width="1" fill="none"></path></g><g transform="translate(1459.7533461397545 782.9695275671486) rotate(0 41.57979548521632 -0.6225593559194067)"><path d="M55.74 11.11 C64.81 7.78, 78.77 2.31, 84.01 -2.2 M54.85 9.76 C64.98 6.66, 75.96 2.1, 82.9 -0.73" stroke="#2f9e44" stroke-width="1" fill="none"></path></g><g transform="translate(1459.7533461397545 782.9695275671486) rotate(0 41.57979548521632 -0.6225593559194067)"><path d="M55.82 -9.41 C64.88 -4.84, 78.8 -2.4, 84.01 -2.2 M54.93 -10.76 C65.03 -6.3, 75.99 -3.29, 82.9 -0.73" stroke="#2f9e44" stroke-width="1" fill="none"></path></g></g><mask></mask><g stroke-linecap="round"><g transform="translate(1452.7737486480066 873.7042949598724) rotate(0 42.09220767950478 -0.22586185368265888)"><path d="M0.78 -0.93 C15.04 -0.95, 70.66 -0.04, 84.45 -0.01 M-0.27 1.2 C14.02 0.84, 70.17 -1.56, 84.01 -1.65" stroke="#2f9e44" stroke-width="1" fill="none"></path></g><g transform="translate(1452.7737486480066 873.7042949598724) rotate(0 42.09220767950478 -0.22586185368265888)"><path d="M54.57 10.99 C63.45 6.96, 68.01 2.74, 85.39 -1.62 M55.19 9.85 C63.14 6.17, 69.96 3.23, 84.4 -1.68" stroke="#2f9e44" stroke-width="1" fill="none"></path></g><g transform="translate(1452.7737486480066 873.7042949598724) rotate(0 42.09220767950478 -0.22586185368265888)"><path d="M54.01 -9.52 C63.03 -9.28, 67.71 -9.23, 85.39 -1.62 M54.63 -10.66 C62.59 -8.98, 69.56 -6.55, 84.4 -1.68" stroke="#2f9e44" stroke-width="1" fill="none"></path></g></g><mask></mask><g stroke-linecap="round"><g transform="translate(1459.7533461397545 965.4361477085602) rotate(0 41.77189515059649 0.5504635374289819)"><path d="M0.97 0.92 C14.76 1.03, 69.95 -0.2, 83.52 -0.3 M0.03 0.36 C13.59 0.76, 68.48 1.65, 82.59 1.33" stroke="#2f9e44" stroke-width="1" fill="none"></path></g><g transform="translate(1459.7533461397545 965.4361477085602) rotate(0 41.77189515059649 0.5504635374289819)"><path d="M55.94 11.67 C65.06 5.76, 76.44 3.9, 81.82 0.05 M54.06 11.27 C62.01 8.04, 71.54 5.36, 82.33 1.23" stroke="#2f9e44" stroke-width="1" fill="none"></path></g><g transform="translate(1459.7533461397545 965.4361477085602) rotate(0 41.77189515059649 0.5504635374289819)"><path d="M55.93 -8.85 C64.9 -7.27, 76.28 -1.63, 81.82 0.05 M54.05 -9.25 C61.81 -6.42, 71.35 -3.03, 82.33 1.23" stroke="#2f9e44" stroke-width="1" fill="none"></path></g></g><mask></mask><g stroke-linecap="round" transform="translate(1559.8064899052426 463.24699470709515) rotate(0 91.6666666666664 37.5)"><path d="M18.75 0 M18.75 0 C74.61 -1.91, 131.28 -0.02, 164.58 0 M18.75 0 C55.97 0.55, 94.7 -0.26, 164.58 0 M164.58 0 C175.44 -0.78, 184.11 6.19, 183.33 18.75 M164.58 0 C176.48 -0.23, 184.4 6.27, 183.33 18.75 M183.33 18.75 C183.42 27.22, 182.84 39.87, 183.33 56.25 M183.33 18.75 C184.37 26.48, 183.91 34.48, 183.33 56.25 M183.33 56.25 C184.9 70.73, 177.12 75.68, 164.58 75 M183.33 56.25 C182.41 67.14, 175.82 75.43, 164.58 75 M164.58 75 C135.5 74.24, 103.9 75.85, 18.75 75 M164.58 75 C120.13 73.95, 76.75 73.03, 18.75 75 M18.75 75 C5.57 75.82, -0.16 68.18, 0 56.25 M18.75 75 C4.43 74.2, 1.64 70.31, 0 56.25 M0 56.25 C-0.14 40.01, 1.37 26.73, 0 18.75 M0 56.25 C0.33 46.19, 0.83 36.14, 0 18.75 M0 18.75 C0.25 7.95, 7.55 -0.06, 18.75 0 M0 18.75 C-1.02 7.52, 5.92 -0.85, 18.75 0" stroke="#2f9e44" stroke-width="1" fill="none"></path></g><g transform="translate(1596.403187394663 475.74699470709515) rotate(0 55.06996917724621 25)"><text x="55.069969177246094" y="0" font-family="Virgil, Segoe UI Emoji" font-size="20px" fill="#2f9e44" text-anchor="middle" style="white-space: pre;" direction="ltr" dominant-baseline="text-before-edge">PRODUCT </text><text x="55.069969177246094" y="25" font-family="Virgil, Segoe UI Emoji" font-size="20px" fill="#2f9e44" text-anchor="middle" style="white-space: pre;" direction="ltr" dominant-baseline="text-before-edge">SCREEN</text></g><g stroke-linecap="round" transform="translate(1560.9155609394518 555.2998905464826) rotate(0 91.66666666666663 37.5)"><path d="M18.75 0 M18.75 0 C48.18 -1.3, 79.05 -1.86, 164.58 0 M18.75 0 C68.73 0.09, 120.74 0.45, 164.58 0 M164.58 0 C176.56 -0.2, 184.27 6.27, 183.33 18.75 M164.58 0 C176.27 0.63, 181.64 6.23, 183.33 18.75 M183.33 18.75 C181.5 28.11, 181.55 37.51, 183.33 56.25 M183.33 18.75 C184.27 29.89, 183.51 39.4, 183.33 56.25 M183.33 56.25 C182.53 67.35, 175.99 75.37, 164.58 75 M183.33 56.25 C181.13 68.74, 178.06 75.82, 164.58 75 M164.58 75 C130.91 73.26, 95.46 73.47, 18.75 75 M164.58 75 C116.52 74.47, 69.05 73.77, 18.75 75 M18.75 75 C4.67 74.3, 1.43 70.11, 0 56.25 M18.75 75 C8.2 73.3, 0.68 68.27, 0 56.25 M0 56.25 C-0.97 48.26, 1.48 41.17, 0 18.75 M0 56.25 C-0.18 46.75, 0.35 35.53, 0 18.75 M0 18.75 C-0.89 7.35, 5.96 -0.74, 18.75 0 M0 18.75 C-1.22 5.24, 6.89 -0.11, 18.75 0" stroke="#2f9e44" stroke-width="1" fill="none"></path></g><g transform="translate(1597.5122584288722 567.7998905464826) rotate(0 55.06996917724598 25)"><text x="55.069969177246094" y="0" font-family="Virgil, Segoe UI Emoji" font-size="20px" fill="#2f9e44" text-anchor="middle" style="white-space: pre;" direction="ltr" dominant-baseline="text-before-edge">PRODUCT </text><text x="55.069969177246094" y="25" font-family="Virgil, Segoe UI Emoji" font-size="20px" fill="#2f9e44" text-anchor="middle" style="white-space: pre;" direction="ltr" dominant-baseline="text-before-edge">SCREEN</text></g><g stroke-linecap="round" transform="translate(1557.5883478368235 649.5709284542888) rotate(0 91.6666666666664 37.5)"><path d="M18.75 0 M18.75 0 C54.17 0.65, 86.99 -0.3, 164.58 0 M18.75 0 C56.59 -0.05, 95.41 0.06, 164.58 0 M164.58 0 C176.38 0.55, 181.86 6.23, 183.33 18.75 M164.58 0 C175.4 -0.69, 184.79 4.27, 183.33 18.75 M183.33 18.75 C182.44 32.44, 182.41 46.01, 183.33 56.25 M183.33 18.75 C182.94 33.01, 182.79 48.85, 183.33 56.25 M183.33 56.25 C181.42 68.74, 177.94 75.71, 164.58 75 M183.33 56.25 C181.74 67.5, 177.34 74.98, 164.58 75 M164.58 75 C135.28 72.54, 103.59 73.09, 18.75 75 M164.58 75 C114.03 74.23, 65.78 75.26, 18.75 75 M18.75 75 C7.94 73.52, 0.59 68.33, 0 56.25 M18.75 75 C4.16 76.26, -0.77 67.87, 0 56.25 M0 56.25 C-0.8 46.89, -1.28 34.56, 0 18.75 M0 56.25 C-0.69 42.37, -0.39 27.01, 0 18.75 M0 18.75 C-1.06 5.37, 6.81 -0.1, 18.75 0 M0 18.75 C-1.83 5.33, 4.52 1, 18.75 0" stroke="#2f9e44" stroke-width="1" fill="none"></path></g><g transform="translate(1594.1850453262439 662.0709284542888) rotate(0 55.06996917724621 25)"><text x="55.069969177246094" y="0" font-family="Virgil, Segoe UI Emoji" font-size="20px" fill="#2f9e44" text-anchor="middle" style="white-space: pre;" direction="ltr" dominant-baseline="text-before-edge">PRODUCT </text><text x="55.069969177246094" y="25" font-family="Virgil, Segoe UI Emoji" font-size="20px" fill="#2f9e44" text-anchor="middle" style="white-space: pre;" direction="ltr" dominant-baseline="text-before-edge">SCREEN</text></g><g stroke-linecap="round" transform="translate(1555.3702057684047 743.841966362096) rotate(0 91.66666666666663 37.5)"><path d="M18.75 0 M18.75 0 C56.7 1.97, 96.13 0.67, 164.58 0 M18.75 0 C60.69 0.26, 102.6 -0.02, 164.58 0 M164.58 0 C175.62 -0.6, 184.6 4.53, 183.33 18.75 M164.58 0 C178.06 -1.92, 185.35 5.58, 183.33 18.75 M183.33 18.75 C185.2 31.61, 183.9 43.6, 183.33 56.25 M183.33 18.75 C182.17 27.38, 183.55 36.37, 183.33 56.25 M183.33 56.25 C181.95 67.66, 177.31 74.98, 164.58 75 M183.33 56.25 C181.14 66.66, 175.14 75.63, 164.58 75 M164.58 75 C130.6 74.35, 94.39 72.92, 18.75 75 M164.58 75 C126.78 75.25, 87.58 75.78, 18.75 75 M18.75 75 C4.43 76.09, -0.67 67.98, 0 56.25 M18.75 75 C6.08 76.94, 0.68 68.2, 0 56.25 M0 56.25 C1.88 43.28, 0.12 26.82, 0 18.75 M0 56.25 C-0.48 42.49, 0.33 29.57, 0 18.75 M0 18.75 C-1.59 5.45, 4.75 0.87, 18.75 0 M0 18.75 C1.32 4.95, 5.24 1.37, 18.75 0" stroke="#2f9e44" stroke-width="1" fill="none"></path></g><g transform="translate(1591.9669032578252 756.341966362096) rotate(0 55.06996917724598 25)"><text x="55.069969177246094" y="0" font-family="Virgil, Segoe UI Emoji" font-size="20px" fill="#2f9e44" text-anchor="middle" style="white-space: pre;" direction="ltr" dominant-baseline="text-before-edge">PRODUCT </text><text x="55.069969177246094" y="25" font-family="Virgil, Segoe UI Emoji" font-size="20px" fill="#2f9e44" text-anchor="middle" style="white-space: pre;" direction="ltr" dominant-baseline="text-before-edge">SCREEN</text></g><g stroke-linecap="round" transform="translate(1553.1520636999855 831.458578064645) rotate(0 91.66666666666663 37.5)"><path d="M18.75 0 M18.75 0 C67.95 1.31, 117.57 -0.32, 164.58 0 M18.75 0 C65.79 -0.29, 114.93 -0.85, 164.58 0 M164.58 0 C177.94 -1.67, 185.09 5.67, 183.33 18.75 M164.58 0 C178.05 -0.71, 185.13 8.52, 183.33 18.75 M183.33 18.75 C182.06 28.97, 183.83 39.47, 183.33 56.25 M183.33 18.75 C182.8 29.44, 183.61 41.21, 183.33 56.25 M183.33 56.25 C181.43 66.94, 175.39 75.55, 164.58 75 M183.33 56.25 C181.92 67.26, 176.3 75.95, 164.58 75 M164.58 75 C121.28 75.27, 80.73 75.54, 18.75 75 M164.58 75 C130.71 75.24, 98.32 74.31, 18.75 75 M18.75 75 C6.1 76.69, 0.6 68.27, 0 56.25 M18.75 75 C8.1 73.9, 0.29 70.7, 0 56.25 M0 56.25 C1.11 42.27, -0.73 27.8, 0 18.75 M0 56.25 C-0.9 46.25, -0.86 37.48, 0 18.75 M0 18.75 C1.15 5.12, 5.37 1.19, 18.75 0 M0 18.75 C-0.31 8.19, 5.06 -0.02, 18.75 0" stroke="#2f9e44" stroke-width="1" fill="none"></path></g><g transform="translate(1589.748761189406 843.958578064645) rotate(0 55.06996917724598 25)"><text x="55.069969177246094" y="0" font-family="Virgil, Segoe UI Emoji" font-size="20px" fill="#2f9e44" text-anchor="middle" style="white-space: pre;" direction="ltr" dominant-baseline="text-before-edge">PRODUCT </text><text x="55.069969177246094" y="25" font-family="Virgil, Segoe UI Emoji" font-size="20px" fill="#2f9e44" text-anchor="middle" style="white-space: pre;" direction="ltr" dominant-baseline="text-before-edge">SCREEN</text></g><g stroke-linecap="round" transform="translate(1550.9339216315668 929.05682907508) rotate(0 91.6666666666664 37.5)"><path d="M18.75 0 M18.75 0 C69.85 -0.95, 119.82 -0.95, 164.58 0 M18.75 0 C58.56 0.42, 98.39 0.96, 164.58 0 M164.58 0 C177.93 -0.61, 184.9 8.23, 183.33 18.75 M164.58 0 C177.12 0.78, 182.41 4.64, 183.33 18.75 M183.33 18.75 C183.4 28.79, 184.11 35.75, 183.33 56.25 M183.33 18.75 C182.42 27.05, 182.53 37.44, 183.33 56.25 M183.33 56.25 C182.11 67.46, 176.4 75.82, 164.58 75 M183.33 56.25 C183.15 68.09, 175.26 74.2, 164.58 75 M164.58 75 C108.95 76.83, 55.85 74.42, 18.75 75 M164.58 75 C112.79 75.29, 61.44 74.2, 18.75 75 M18.75 75 C7.86 74.04, 0.25 70.45, 0 56.25 M18.75 75 C7.75 74.94, -1.02 70.02, 0 56.25 M0 56.25 C-0.74 46.1, 0.04 33.23, 0 18.75 M0 56.25 C0.86 45.93, -0.16 37.33, 0 18.75 M0 18.75 C-0.27 7.94, 5.22 -0.02, 18.75 0 M0 18.75 C-0.41 7.75, 7.98 0.47, 18.75 0" stroke="#2f9e44" stroke-width="1" fill="none"></path></g><g transform="translate(1587.5306191209872 941.55682907508) rotate(0 55.06996917724621 25)"><text x="55.069969177246094" y="0" font-family="Virgil, Segoe UI Emoji" font-size="20px" fill="#2f9e44" text-anchor="middle" style="white-space: pre;" direction="ltr" dominant-baseline="text-before-edge">PRODUCT </text><text x="55.069969177246094" y="25" font-family="Virgil, Segoe UI Emoji" font-size="20px" fill="#2f9e44" text-anchor="middle" style="white-space: pre;" direction="ltr" dominant-baseline="text-before-edge">SCREEN</text></g><g stroke-linecap="round"><g transform="translate(537.9260877378717 840.8994833135312) rotate(0 -0.7054306411602624 140.49087018228204)"><path d="M0.92 0.46 C0.81 47.21, -1.04 233.37, -1.37 279.89 M-0.05 -0.34 C-0.26 46.65, -2.06 234.5, -2.34 281.32" stroke="#2f9e44" stroke-width="1" fill="none"></path></g><g transform="translate(537.9260877378717 840.8994833135312) rotate(0 -0.7054306411602624 140.49087018228204)"><path d="M-11.6 253.01 C-10.41 260.26, -8.53 264.94, -2.12 282.86 M-12.77 252.07 C-9.45 261.55, -6.72 270.43, -2.35 282.18" stroke="#2f9e44" stroke-width="1" fill="none"></path></g><g transform="translate(537.9260877378717 840.8994833135312) rotate(0 -0.7054306411602624 140.49087018228204)"><path d="M8.92 253.17 C5.16 260.54, 2.08 265.18, -2.12 282.86 M7.75 252.23 C5.09 261.75, 1.84 270.58, -2.35 282.18" stroke="#2f9e44" stroke-width="1" fill="none"></path></g></g><mask></mask><g stroke-linecap="round" transform="translate(404.0479898069077 1124.2733546220259) rotate(0 132.26760062319192 101.77889004623569)"><path d="M166.25 25.5 M166.25 25.5 C187.32 39.51, 203.33 53.64, 231.29 76.5 M166.25 25.5 C189.85 45.75, 215.71 64.58, 231.29 76.5 M231.29 76.5 C264.83 101.41, 262.71 101.11, 231.29 127.5 M231.29 76.5 C263.85 103.58, 264.61 103.96, 231.29 127.5 M231.29 127.5 C217.4 139.31, 204.07 149.25, 166.25 178.06 M231.29 127.5 C214.77 141.1, 195.62 156.23, 166.25 178.06 M166.25 178.06 C131.36 203.63, 133.81 202.87, 99.75 178.06 M166.25 178.06 C131.83 205.12, 131.7 203.55, 99.75 178.06 M99.75 178.06 C82.9 165.95, 63.58 150.97, 33.25 127.5 M99.75 178.06 C79.78 164.19, 62.24 150.88, 33.25 127.5 M33.25 127.5 C1.78 103.58, -0.52 102.8, 33.25 76.5 M33.25 127.5 C-1.44 103.92, 0.42 103.56, 33.25 76.5 M33.25 76.5 C57.19 59, 79.76 41.34, 99.75 25.5 M33.25 76.5 C58.03 58.01, 84.76 37.29, 99.75 25.5 M99.75 25.5 C134.4 0.87, 134.36 -1.13, 166.25 25.5 M99.75 25.5 C132.8 0.38, 134.44 -1.23, 166.25 25.5" stroke="#2f9e44" stroke-width="1" fill="none"></path></g><g transform="translate(475.35181880502716 1201.1627996451437) rotate(0 60.82997131347656 25)"><text x="60.82997131347656" y="0" font-family="Virgil, Segoe UI Emoji" font-size="20px" fill="#2f9e44" text-anchor="middle" style="white-space: pre;" direction="ltr" dominant-baseline="text-before-edge">SUBSCRIBE</text><text x="60.82997131347656" y="25" font-family="Virgil, Segoe UI Emoji" font-size="20px" fill="#2f9e44" text-anchor="middle" style="white-space: pre;" direction="ltr" dominant-baseline="text-before-edge">NEWSLATER</text></g><g stroke-linecap="round"><g transform="translate(408.4525072687062 1227.90405840856) rotate(0 -67.61669525118674 -1.0006529113705938)"><path d="M1.05 -0.45 C-21.46 -0.55, -112.62 -0.1, -135.68 0.04 M0.14 -1.73 C-22.42 -2.27, -113.78 -1.94, -136.28 -1.92" stroke="#2f9e44" stroke-width="1" fill="none"></path></g><g transform="translate(408.4525072687062 1227.90405840856) rotate(0 -67.61669525118674 -1.0006529113705938)"><path d="M-108.85 -11.15 C-114.5 -10.99, -120.91 -5.33, -136.85 -1.68 M-107.26 -11.93 C-113.52 -10.59, -120.8 -7.67, -135.45 -1.17" stroke="#2f9e44" stroke-width="1" fill="none"></path></g><g transform="translate(408.4525072687062 1227.90405840856) rotate(0 -67.61669525118674 -1.0006529113705938)"><path d="M-108.81 9.37 C-114.59 4.44, -121.01 5.01, -136.85 -1.68 M-107.22 8.59 C-113.32 5.44, -120.61 3.86, -135.45 -1.17" stroke="#2f9e44" stroke-width="1" fill="none"></path></g></g><mask></mask><g stroke-linecap="round" transform="translate(78.80427293725643 1186.6258926137818) rotate(0 91.66666666666652 37.5)"><path d="M18.75 0 M18.75 0 C70.78 0.85, 124.94 2.16, 164.58 0 M18.75 0 C62.19 -0.48, 104.01 -1.07, 164.58 0 M164.58 0 C178.54 -0.14, 182.11 4.97, 183.33 18.75 M164.58 0 C177.53 -0.35, 182.68 4.03, 183.33 18.75 M183.33 18.75 C184.89 26.7, 185.07 40.3, 183.33 56.25 M183.33 18.75 C182.72 33.63, 182.86 46.45, 183.33 56.25 M183.33 56.25 C182.31 68.03, 177 73.55, 164.58 75 M183.33 56.25 C183.84 70.34, 175.46 73.8, 164.58 75 M164.58 75 C108.01 75.6, 47.19 75.66, 18.75 75 M164.58 75 C128.89 74.12, 93.92 74.36, 18.75 75 M18.75 75 C5.01 73.75, 1.61 67.56, 0 56.25 M18.75 75 C4.87 74.22, -1.85 69.08, 0 56.25 M0 56.25 C-0.94 41.31, -0.26 27.78, 0 18.75 M0 56.25 C-0.3 48.26, -0.22 39.12, 0 18.75 M0 18.75 C-1.81 7.94, 7.48 1.22, 18.75 0 M0 18.75 C1.39 5.35, 7.78 1.52, 18.75 0" stroke="#2f9e44" stroke-width="1" fill="none"></path></g><g transform="translate(99.39097591984091 1211.6258926137818) rotate(0 71.07996368408203 12.5)"><text x="71.07996368408203" y="0" font-family="Virgil, Segoe UI Emoji" font-size="20px" fill="#2f9e44" text-anchor="middle" style="white-space: pre;" direction="ltr" dominant-baseline="text-before-edge">INPUT EMAIL</text></g><g stroke-linecap="round" transform="translate(2082.631045829442 470.7702913616238) rotate(0 109.42010555493266 95.00926187786251)"><path d="M137.5 24 M137.5 24 C153.4 39.18, 167.24 50.16, 191.34 72 M137.5 24 C156.75 41.81, 174.96 58.95, 191.34 72 M191.34 72 C219.1 96.17, 217.04 94.81, 191.34 120 M191.34 72 C217.51 97.64, 218.26 97.45, 191.34 120 M191.34 120 C172.17 136.01, 155.08 151.27, 137.5 166.02 M191.34 120 C170.17 137.2, 150.64 153.58, 137.5 166.02 M137.5 166.02 C109.49 190.39, 109.41 191.34, 82.5 166.02 M137.5 166.02 C111.88 191.83, 112.05 188.01, 82.5 166.02 M82.5 166.02 C62.61 147.94, 43.11 132.82, 27.5 120 M82.5 166.02 C72.15 157.52, 60.31 147.08, 27.5 120 M27.5 120 C-0.47 97.11, 0.35 96, 27.5 72 M27.5 120 C0.79 98.28, -0.78 97.39, 27.5 72 M27.5 72 C42.34 59.36, 59.64 44.02, 82.5 24 M27.5 72 C49.66 52.02, 69.78 34.42, 82.5 24 M82.5 24 C110.8 1.55, 109.16 1, 137.5 24 M82.5 24 C111.68 0.21, 108.3 -0.73, 137.5 24" stroke="#2f9e44" stroke-width="1" fill="none"></path></g><g transform="translate(2161.3811224106194 528.2749223005551) rotate(0 30.459976196289062 37.5)"><text x="30.459976196289062" y="0" font-family="Virgil, Segoe UI Emoji" font-size="20px" fill="#2f9e44" text-anchor="middle" style="white-space: pre;" direction="ltr" dominant-baseline="text-before-edge">ADD </text><text x="30.459976196289062" y="25" font-family="Virgil, Segoe UI Emoji" font-size="20px" fill="#2f9e44" text-anchor="middle" style="white-space: pre;" direction="ltr" dominant-baseline="text-before-edge">SHOP </text><text x="30.459976196289062" y="50" font-family="Virgil, Segoe UI Emoji" font-size="20px" fill="#2f9e44" text-anchor="middle" style="white-space: pre;" direction="ltr" dominant-baseline="text-before-edge">CARD</text></g><g stroke-linecap="round"><g transform="translate(1825.351694329247 500.90365237644505) rotate(0 1.8312991606051128 234.60951004831543)"><path d="M-0.26 0.24 C0.27 78.18, 3.54 390.49, 3.92 468.6 M1.81 -0.67 C2.2 77.94, 3.08 391.43, 3.53 469.89" stroke="#2f9e44" stroke-width="1" fill="none"></path></g></g><mask></mask><g stroke-linecap="round"><g transform="translate(1745.2452487809724 498.97523754869485) rotate(0 41.53070144452454 -0.3027869382386257)"><path d="M-0.56 -0.82 C13.49 -0.72, 69.56 0.01, 83.62 -0.06 M1.35 1.36 C15.32 1.15, 69.1 -1.68, 82.75 -1.96" stroke="#2f9e44" stroke-width="1" fill="none"></path></g><g transform="translate(1745.2452487809724 498.97523754869485) rotate(0 41.53070144452454 -0.3027869382386257)"><path d="M53.6 9.61 C62.42 7.34, 67.14 4.1, 83.85 -1.62 M55.5 10.22 C64.9 5.58, 74.84 0.4, 82.82 -1.35" stroke="#2f9e44" stroke-width="1" fill="none"></path></g><g transform="translate(1745.2452487809724 498.97523754869485) rotate(0 41.53070144452454 -0.3027869382386257)"><path d="M52.81 -10.9 C61.71 -8.21, 66.62 -6.5, 83.85 -1.62 M54.71 -10.28 C64.45 -7.49, 74.68 -5.22, 82.82 -1.35" stroke="#2f9e44" stroke-width="1" fill="none"></path></g></g><mask></mask><g stroke-linecap="round"><g transform="translate(1746.9376558230656 590.3652178217337) rotate(0 41.710555074590275 -0.5039384243942777)"><path d="M-0.28 1.1 C13.86 1.01, 69.85 0.14, 83.7 -0.15 M1.77 0.63 C15.88 0.13, 69.55 -2.1, 82.87 -2.11" stroke="#2f9e44" stroke-width="1" fill="none"></path></g><g transform="translate(1746.9376558230656 590.3652178217337) rotate(0 41.710555074590275 -0.5039384243942777)"><path d="M56.77 9.21 C61.09 5.6, 65.95 4.7, 83.15 -2.07 M54.12 7.88 C61.95 5.81, 68.38 3.06, 82.15 -3.06" stroke="#2f9e44" stroke-width="1" fill="none"></path></g><g transform="translate(1746.9376558230656 590.3652178217337) rotate(0 41.710555074590275 -0.5039384243942777)"><path d="M56.28 -11.31 C60.76 -10.76, 65.72 -7.5, 83.15 -2.07 M53.62 -12.63 C61.64 -9.64, 68.19 -7.33, 82.15 -3.06" stroke="#2f9e44" stroke-width="1" fill="none"></path></g></g><mask></mask><g stroke-linecap="round"><g transform="translate(1745.245248780972 681.7551980947721) rotate(0 41.6956847647607 0.15064875034022407)"><path d="M-0.67 -0.83 C13.3 -1.08, 69.91 -1.07, 84.06 -1.03 M1.19 1.35 C15.02 1.22, 69.63 0.33, 83.41 0.21" stroke="#2f9e44" stroke-width="1" fill="none"></path></g><g transform="translate(1745.245248780972 681.7551980947721) rotate(0 41.6956847647607 0.15064875034022407)"><path d="M53.98 11.8 C63.45 8.81, 73.23 5.47, 83.34 1.93 M54.68 11.61 C62.27 9.13, 68.11 5.34, 83.88 -0.63" stroke="#2f9e44" stroke-width="1" fill="none"></path></g><g transform="translate(1745.245248780972 681.7551980947721) rotate(0 41.6956847647607 0.15064875034022407)"><path d="M53.71 -8.72 C63.35 -5.06, 73.22 -1.76, 83.34 1.93 M54.42 -8.91 C62.22 -6.79, 68.12 -5.97, 83.88 -0.63" stroke="#2f9e44" stroke-width="1" fill="none"></path></g></g><mask></mask><g stroke-linecap="round"><g transform="translate(1743.5528417388782 778.22239949409) rotate(0 41.892447269701734 -0.6775819727663475)"><path d="M0.1 -0.17 C13.91 -0.31, 68.73 -1.02, 82.75 -1.2 M-1.3 -1.3 C12.91 -1.27, 70.89 -0.21, 85.09 -0.05" stroke="#2f9e44" stroke-width="1" fill="none"></path></g><g transform="translate(1743.5528417388782 778.22239949409) rotate(0 41.892447269701734 -0.6775819727663475)"><path d="M56.46 8.58 C63.8 8.15, 71.96 4.29, 86.06 -0.57 M56.61 10.63 C65.25 6.33, 75.26 2.12, 84.67 -0.49" stroke="#2f9e44" stroke-width="1" fill="none"></path></g><g transform="translate(1743.5528417388782 778.22239949409) rotate(0 41.892447269701734 -0.6775819727663475)"><path d="M56.77 -11.94 C63.96 -6.39, 72.03 -4.28, 86.06 -0.57 M56.91 -9.89 C65.61 -7.25, 75.52 -4.53, 84.67 -0.49" stroke="#2f9e44" stroke-width="1" fill="none"></path></g></g><mask></mask><g stroke-linecap="round"><g transform="translate(1738.475620612599 872.9971938513154) rotate(0 41.599129762792245 -0.6969579949860645)"><path d="M-0.2 -1.14 C13.39 -1.2, 68.63 -0.33, 82.68 -0.26 M-1.77 0.87 C12.11 0.41, 70.73 -2.21, 84.97 -2.27" stroke="#2f9e44" stroke-width="1" fill="none"></path></g><g transform="translate(1738.475620612599 872.9971938513154) rotate(0 41.599129762792245 -0.6969579949860645)"><path d="M55.17 7.43 C68.36 5.5, 78.61 0.81, 86.46 -3.14 M57.17 9.76 C62.47 6.19, 69.27 4.82, 84.33 -2.76" stroke="#2f9e44" stroke-width="1" fill="none"></path></g><g transform="translate(1738.475620612599 872.9971938513154) rotate(0 41.599129762792245 -0.6969579949860645)"><path d="M54.6 -13.09 C68.04 -6.96, 78.51 -3.6, 86.46 -3.14 M56.6 -10.76 C62.18 -9.9, 69.1 -6.84, 84.33 -2.76" stroke="#2f9e44" stroke-width="1" fill="none"></path></g></g><mask></mask><g stroke-linecap="round"><g transform="translate(1741.860434696786 961.0023600401669) rotate(0 41.51538138497449 -0.492048906458308)"><path d="M0.68 0.19 C14.67 -0.18, 69.68 -0.93, 83.45 -1.17 M-0.42 -0.76 C13.44 -0.46, 68.67 -0.07, 82.49 -0.01" stroke="#2f9e44" stroke-width="1" fill="none"></path></g><g transform="translate(1741.860434696786 961.0023600401669) rotate(0 41.51538138497449 -0.492048906458308)"><path d="M54.56 10.04 C60.35 7.04, 67.53 4.84, 82.52 0.45 M55.23 10.82 C64.3 7.5, 71.88 2.96, 82.57 0.05" stroke="#2f9e44" stroke-width="1" fill="none"></path></g><g transform="translate(1741.860434696786 961.0023600401669) rotate(0 41.51538138497449 -0.492048906458308)"><path d="M54.68 -10.48 C60.62 -8.13, 67.77 -4.96, 82.52 0.45 M55.35 -9.7 C64.3 -6.47, 71.84 -4.45, 82.57 0.05" stroke="#2f9e44" stroke-width="1" fill="none"></path></g></g><mask></mask><g stroke-linecap="round"><g transform="translate(1833.0142759172913 865.8395381143957) rotate(0 125.40748612740981 -0.71079986809616)"><path d="M-0.78 1.2 C41.19 0.82, 209.68 -2.12, 251.6 -2.62 M1.01 0.78 C42.9 0.54, 209.56 -1.38, 251.05 -1.61" stroke="#2f9e44" stroke-width="1" fill="none"></path></g><g transform="translate(1833.0142759172913 865.8395381143957) rotate(0 125.40748612740981 -0.71079986809616)"><path d="M224.94 10.16 C229.21 5.96, 238.49 2.99, 250.07 -2.22 M223.33 9.25 C233.72 5.93, 242.75 1.95, 250.34 -2.04" stroke="#2f9e44" stroke-width="1" fill="none"></path></g><g transform="translate(1833.0142759172913 865.8395381143957) rotate(0 125.40748612740981 -0.71079986809616)"><path d="M224.76 -10.37 C229.02 -8.77, 238.35 -5.95, 250.07 -2.22 M223.15 -11.27 C233.73 -7.24, 242.83 -3.86, 250.34 -2.04" stroke="#2f9e44" stroke-width="1" fill="none"></path></g></g><mask></mask><g stroke-linecap="round" transform="translate(2095.324098645142 766.9415237279518) rotate(0 115.34353020225922 95.00926187786251)"><path d="M145 24 M145 24 C158.31 34.25, 169.63 45.6, 201.69 72 M145 24 C166.95 42.41, 188.27 60.31, 201.69 72 M201.69 72 C230.86 94.33, 231.97 95.7, 201.69 120 M201.69 72 C231.82 96.18, 229.51 95.7, 201.69 120 M201.69 120 C185.43 133.89, 169.19 145.72, 145 166.02 M201.69 120 C186.14 131.19, 170.94 143.96, 145 166.02 M145 166.02 C114.69 190.57, 116.92 191.02, 87 166.02 M145 166.02 C115.68 192.01, 118.09 188.37, 87 166.02 M87 166.02 C64.15 146.81, 42.02 129.69, 29 120 M87 166.02 C67.05 150.41, 49.11 134.69, 29 120 M29 120 C-1.78 94.04, -1.74 96.37, 29 72 M29 120 C-0.36 93.99, 1.56 96.23, 29 72 M29 72 C50.45 53.07, 71.86 36.48, 87 24 M29 72 C45.72 58.45, 60.37 44.89, 87 24 M87 24 C116.1 1.21, 115.75 -0.61, 145 24 M87 24 C116.94 0.16, 115.34 1.73, 145 24" stroke="#2f9e44" stroke-width="1" fill="none"></path></g><g transform="translate(2158.7558887706855 836.9461546668831) rotate(0 51.73997497558594 25)"><text x="51.73997497558594" y="0" font-family="Virgil, Segoe UI Emoji" font-size="20px" fill="#2f9e44" text-anchor="middle" style="white-space: pre;" direction="ltr" dominant-baseline="text-before-edge">ADD </text><text x="51.73997497558594" y="25" font-family="Virgil, Segoe UI Emoji" font-size="20px" fill="#2f9e44" text-anchor="middle" style="white-space: pre;" direction="ltr" dominant-baseline="text-before-edge">FAVORITE</text></g><g stroke-linecap="round"><g transform="translate(1828.860475842856 571.5675742338619) rotate(0 125.44821711191867 -0.26675619199909306)"><path d="M-0.99 -0.73 C41.14 -0.88, 210.07 -1.97, 251.88 -2.04 M0.69 1.5 C42.83 1.62, 209.55 0.06, 251.48 -0.73" stroke="#2f9e44" stroke-width="1" fill="none"></path></g><g transform="translate(1828.860475842856 571.5675742338619) rotate(0 125.44821711191867 -0.26675619199909306)"><path d="M222.21 11.63 C229.16 6.17, 236.99 5.64, 250.27 -1.34 M222.82 10.59 C230.28 7.81, 238.63 3.69, 252.21 -0.39" stroke="#2f9e44" stroke-width="1" fill="none"></path></g><g transform="translate(1828.860475842856 571.5675742338619) rotate(0 125.44821711191867 -0.26675619199909306)"><path d="M221.94 -8.89 C228.75 -9.69, 236.64 -5.57, 250.27 -1.34 M222.55 -9.93 C230.28 -7.31, 238.71 -6.04, 252.21 -0.39" stroke="#2f9e44" stroke-width="1" fill="none"></path></g></g><mask></mask><g stroke-linecap="round" transform="translate(1251.6591881616305 1176.5040279145308) rotate(0 115.3435302022591 95.00926187786251)"><path d="M145 24 M145 24 C156.86 34.12, 171.69 49.06, 201.69 72 M145 24 C166.53 42.04, 189.37 62.21, 201.69 72 M201.69 72 C232.08 94.8, 229.86 96.76, 201.69 120 M201.69 72 C232.84 94.84, 231.86 97.73, 201.69 120 M201.69 120 C192.23 127.13, 180.62 139.26, 145 166.02 M201.69 120 C178.46 138.08, 157.48 156.29, 145 166.02 M145 166.02 C117.23 189.48, 115.35 189.55, 87 166.02 M145 166.02 C113.87 189.13, 115.19 191.43, 87 166.02 M87 166.02 C63.08 150.03, 40.3 129.45, 29 120 M87 166.02 C67.23 149.36, 45.96 133.57, 29 120 M29 120 C-1.14 97.95, 1.43 96.82, 29 72 M29 120 C1.9 96.43, 0.52 94.68, 29 72 M29 72 C42.9 59.91, 60.26 46.89, 87 24 M29 72 C51.11 54.72, 70.62 35.58, 87 24 M87 24 C115.93 0.79, 114.31 -1.79, 145 24 M87 24 C117.01 0.83, 117.14 -1.17, 145 24" stroke="#2f9e44" stroke-width="1" fill="none"></path></g><g transform="translate(1315.090978287174 1246.508658853462) rotate(0 51.73997497558594 25)"><text x="51.73997497558594" y="0" font-family="Virgil, Segoe UI Emoji" font-size="20px" fill="#2f9e44" text-anchor="middle" style="white-space: pre;" direction="ltr" dominant-baseline="text-before-edge">ADD </text><text x="51.73997497558594" y="25" font-family="Virgil, Segoe UI Emoji" font-size="20px" fill="#2f9e44" text-anchor="middle" style="white-space: pre;" direction="ltr" dominant-baseline="text-before-edge">FAVORITE</text></g><g stroke-linecap="round"><g transform="translate(1365.140946309291 1013.285812220214) rotate(0 2.06113397522995 82.82625654758704)"><path d="M0.9 -0.87 C1.57 26.87, 3.71 137.4, 4.21 165.32 M-0.08 1.29 C0.45 29.28, 2.95 139.3, 3.5 166.52" stroke="#2f9e44" stroke-width="1" fill="none"></path></g><g transform="translate(1365.140946309291 1013.285812220214) rotate(0 2.06113397522995 82.82625654758704)"><path d="M-8.82 139.31 C-5.25 147.52, 0.37 157.28, 1.67 164.65 M-8.31 138.19 C-4.9 144.04, -2.61 150.22, 2.97 165.82" stroke="#2f9e44" stroke-width="1" fill="none"></path></g><g transform="translate(1365.140946309291 1013.285812220214) rotate(0 2.06113397522995 82.82625654758704)"><path d="M11.7 138.87 C8.78 147.37, 7.91 157.28, 1.67 164.65 M12.2 137.75 C11.25 143.75, 9.16 150.03, 2.97 165.82" stroke="#2f9e44" stroke-width="1" fill="none"></path></g></g><mask></mask><g stroke-linecap="round"><g transform="translate(531.6590702109577 646.994005571426) rotate(0 -0.06369523961268442 -84.23391037849808)"><path d="M-0.28 -0.36 C-0.3 -28.49, -0.74 -140.45, -0.86 -168.11 M1.78 -1.6 C1.64 -29.63, -1.28 -139.16, -1.91 -166.9" stroke="#2f9e44" stroke-width="1" fill="none"></path></g><g transform="translate(531.6590702109577 646.994005571426) rotate(0 -0.06369523961268442 -84.23391037849808)"><path d="M8.44 -139.27 C5.19 -146.29, 5.57 -152.82, -3.45 -165.07 M9.39 -139.49 C4.74 -147.82, 2.03 -156.59, -1.74 -166.05" stroke="#2f9e44" stroke-width="1" fill="none"></path></g><g transform="translate(531.6590702109577 646.994005571426) rotate(0 -0.06369523961268442 -84.23391037849808)"><path d="M-12.08 -138.77 C-10.38 -145.86, -5.07 -152.51, -3.45 -165.07 M-11.12 -138.99 C-9.19 -147.47, -5.31 -156.39, -1.74 -166.05" stroke="#2f9e44" stroke-width="1" fill="none"></path></g></g><mask></mask><g stroke-linecap="round"><g transform="translate(657.4897192360997 471.9152219871976) rotate(0 -122.33004424503093 1.2265787340484735)"><path d="M-0.16 0.85 C-40.59 0.89, -203 1.01, -243.53 1.03 M-1.7 0.26 C-42.21 0.37, -204.1 1.93, -244.5 2.2" stroke="#2f9e44" stroke-width="1" fill="none"></path></g></g><mask></mask><g stroke-linecap="round"><g transform="translate(654.0925722980842 474.5755299647258) rotate(0 -0.20161796893444262 -74.80480250139766)"><path d="M0.65 -0.35 C0.6 -25.29, -0.04 -124.34, 0.1 -149.26 M-0.47 -1.58 C-0.73 -26.36, -1.26 -123.2, -0.96 -147.76" stroke="#2f9e44" stroke-width="1" fill="none"></path></g><g transform="translate(654.0925722980842 474.5755299647258) rotate(0 -0.20161796893444262 -74.80480250139766)"><path d="M8.66 -119.91 C5.64 -126.92, 1.21 -139.01, -2.93 -147.58 M8.77 -119 C7.62 -125.64, 5.95 -131.69, -0.72 -147.31" stroke="#2f9e44" stroke-width="1" fill="none"></path></g><g transform="translate(654.0925722980842 474.5755299647258) rotate(0 -0.20161796893444262 -74.80480250139766)"><path d="M-11.86 -119.95 C-8.07 -127.05, -5.7 -139.13, -2.93 -147.58 M-11.75 -119.04 C-8.52 -125.82, -5.81 -131.87, -0.72 -147.31" stroke="#2f9e44" stroke-width="1" fill="none"></path></g></g><mask></mask><g stroke-linecap="round"><g transform="translate(418.2840550924051 474.293560787371) rotate(0 -0.8732726779142013 -72.82636183687413)"><path d="M-0.08 0.35 C-0.15 -24.05, -0.01 -121.43, -0.18 -146 M-1.58 -0.51 C-1.82 -24.74, -1.55 -120.16, -1.06 -144.46" stroke="#2f9e44" stroke-width="1" fill="none"></path></g><g transform="translate(418.2840550924051 474.293560787371) rotate(0 -0.8732726779142013 -72.82636183687413)"><path d="M9.5 -115.96 C5.63 -126.68, 0.62 -136.01, -2.31 -145.24 M9.29 -116.81 C6.12 -126.09, 1.4 -135.72, -1.47 -144.04" stroke="#2f9e44" stroke-width="1" fill="none"></path></g><g transform="translate(418.2840550924051 474.293560787371) rotate(0 -0.8732726779142013 -72.82636183687413)"><path d="M-11.02 -116.16 C-8.28 -126.81, -6.67 -136.07, -2.31 -145.24 M-11.23 -117.02 C-6.97 -126.36, -4.25 -135.92, -1.47 -144.04" stroke="#2f9e44" stroke-width="1" fill="none"></path></g></g><mask></mask><g stroke-linecap="round" transform="translate(297.6481615496775 141.35969764418473) rotate(0 115.3435302022591 95.00926187786251)"><path d="M145 24 M145 24 C166.31 43.03, 183.78 57.71, 201.69 72 M145 24 C159 35.85, 171.86 45.55, 201.69 72 M201.69 72 C230.86 95.42, 232.66 97.49, 201.69 120 M201.69 72 C230.92 95.53, 229.79 96.2, 201.69 120 M201.69 120 C189.72 131.84, 176.24 141.1, 145 166.02 M201.69 120 C189.58 130.98, 175.41 141.39, 145 166.02 M145 166.02 C116.7 191.15, 114.45 190.49, 87 166.02 M145 166.02 C115.99 189.26, 116.36 188.11, 87 166.02 M87 166.02 C65.29 148.69, 47.04 133.54, 29 120 M87 166.02 C73.51 155.49, 62.65 146.59, 29 120 M29 120 C-0.31 96.59, 0.7 95.92, 29 72 M29 120 C-0.48 94.26, -1.04 95.93, 29 72 M29 72 C46.2 55.72, 66.13 42.14, 87 24 M29 72 C40.62 61.13, 52.61 52.28, 87 24 M87 24 C116.54 0.32, 115.86 0.94, 145 24 M87 24 C113.95 -1.9, 115.17 0.14, 145 24" stroke="#2f9e44" stroke-width="1" fill="none"></path></g><g transform="translate(361.0799516752212 211.36432858311605) rotate(0 51.73997497558594 25)"><text x="51.73997497558594" y="0" font-family="Virgil, Segoe UI Emoji" font-size="20px" fill="#2f9e44" text-anchor="middle" style="white-space: pre;" direction="ltr" dominant-baseline="text-before-edge">VIEW </text><text x="51.73997497558594" y="25" font-family="Virgil, Segoe UI Emoji" font-size="20px" fill="#2f9e44" text-anchor="middle" style="white-space: pre;" direction="ltr" dominant-baseline="text-before-edge">FAVORITE</text></g><g stroke-linecap="round" transform="translate(536.9862244853082 143.2442493208432) rotate(0 115.3435302022591 95.00926187786251)"><path d="M145 24 M145 24 C166.1 38.22, 184.01 58.12, 201.69 72 M145 24 C156.57 34.39, 169.81 45.91, 201.69 72 M201.69 72 C230.96 94.61, 230.03 97.49, 201.69 120 M201.69 72 C231.58 95.77, 231.35 96.87, 201.69 120 M201.69 120 C184.6 133.91, 170.73 146.73, 145 166.02 M201.69 120 C182.42 134.45, 163.89 150.2, 145 166.02 M145 166.02 C114.76 188.84, 116.63 191.17, 87 166.02 M145 166.02 C115.46 190.85, 115.6 190.91, 87 166.02 M87 166.02 C67.57 148.61, 48.86 134.43, 29 120 M87 166.02 C75.86 155.37, 63.35 146.24, 29 120 M29 120 C1.08 97.94, 1.52 97.68, 29 72 M29 120 C-0.11 94.06, 1.65 96.28, 29 72 M29 72 C50.67 51.39, 74.54 34.69, 87 24 M29 72 C41.04 62.05, 52.5 52.04, 87 24 M87 24 C115.45 0.41, 114.83 1.63, 145 24 M87 24 C117.03 1.87, 116.89 -1.08, 145 24" stroke="#2f9e44" stroke-width="1" fill="none"></path></g><g transform="translate(624.5780030141722 213.24888025977452) rotate(0 27.579986572265682 25)"><text x="27.579986572265625" y="0" font-family="Virgil, Segoe UI Emoji" font-size="20px" fill="#2f9e44" text-anchor="middle" style="white-space: pre;" direction="ltr" dominant-baseline="text-before-edge">VIEW</text><text x="27.579986572265625" y="25" font-family="Virgil, Segoe UI Emoji" font-size="20px" fill="#2f9e44" text-anchor="middle" style="white-space: pre;" direction="ltr" dominant-baseline="text-before-edge">CARD</text></g></svg>