<svg width="24" height="24" viewBox="0 0 24 24" fill="none" xmlns="http://www.w3.org/2000/svg">
<g clip-path="url(#clip0_7_21)">
<path d="M21.8059 15.5593H12.2527V19.8138C12.2526 20.0484 12.1826 20.2778 12.0514 20.4728C11.9201 20.6679 11.7337 20.8199 11.5155 20.9097C11.2973 20.9995 11.0572 21.023 10.8256 20.9772C10.594 20.9315 10.3813 20.8185 10.2143 20.6526L2.34963 12.8388C2.12576 12.6163 2 12.3146 2 12C2 11.6854 2.12576 11.3837 2.34963 11.1612L10.2143 3.34737C10.3813 3.1815 10.594 3.06854 10.8256 3.02278C11.0572 2.97703 11.2973 3.00052 11.5155 3.0903C11.7337 3.18008 11.9201 3.3321 12.0514 3.52716C12.1826 3.72223 12.2526 3.95156 12.2527 4.18618V8.44071H21.8059C22.1226 8.44071 22.4263 8.56571 22.6502 8.78821C22.8742 9.01071 23 9.31248 23 9.62714V14.3729C23 14.6875 22.8742 14.9893 22.6502 15.2118C22.4263 15.4343 22.1226 15.5593 21.8059 15.5593Z" fill="#F8EB78" stroke="#676767" stroke-width="1.2" stroke-linecap="round" stroke-linejoin="round"/>
</g>
<defs>
<clipPath id="clip0_7_21">
<rect width="24" height="24" fill="white"/>
</clipPath>
</defs>
</svg>
